<?xml version="1.0" encoding="UTF-8"?>
<svg version="1.1" xmlns="http://www.w3.org/2000/svg" width="512" height="512">
<path d="M0 0 C147.84 0 295.68 0 448 0 C448 6.52259024 447.98906009 12.75324527 447.39371586 19.19723606 C447.29539539 20.32610718 447.29539539 20.32610718 447.19508865 21.47778377 C446.97666826 23.97215189 446.75141839 26.46585279 446.52613831 28.95960999 C446.36557167 30.77685246 446.20543012 32.59413254 446.04567474 34.41144651 C445.60728498 39.38437222 445.16288976 44.35674544 444.71748245 49.32904685 C444.23746923 54.69960905 443.76306393 60.07066699 443.28796387 65.44166565 C442.35712175 75.95492416 441.4211737 86.46772215 440.48356313 96.98037893 C439.39164442 109.22574557 438.30511444 121.47158854 437.21888613 133.71746104 C435.28053287 155.56824828 433.33777978 177.41864201 431.39233398 199.26879883 C429.50501803 220.46616388 427.62004128 241.66373493 425.73803711 262.86157227 C425.62210969 264.16730633 425.50618226 265.47304039 425.38674188 266.81834216 C424.92075578 272.06700872 424.45478213 277.31567638 423.98882595 282.5643456 C420.41730313 322.79440872 416.84376823 363.0242949 413.26276398 403.25351524 C412.88721779 407.4725904 412.51191833 411.69168739 412.13684654 415.91080475 C411.70490118 420.7695265 411.27243234 425.62820136 410.8395431 430.48683911 C410.6832147 432.24237996 410.52706726 433.99793693 410.37112135 435.75351179 C409.62306749 444.17348285 408.86556453 452.59109657 408 461 C401.0452322 463.77516064 393.95531523 465.77565547 386.73828125 467.75390625 C385.38923629 468.12668946 384.04029116 468.49983412 382.69143677 468.87330627 C379.77146944 469.68113618 376.85092143 470.48681848 373.92990112 471.29083252 C366.76773582 473.26246648 359.60875901 475.245633 352.44942665 477.2275238 C349.8622943 477.94359757 347.27504451 478.65924596 344.68778992 479.37487793 C323.30442688 485.29158455 301.93851888 491.27082002 280.57204819 497.24818039 C276.40893823 498.41271711 272.24569565 499.57677932 268.08245468 500.74084759 C263.22026094 502.10040671 258.3581743 503.46034864 253.49609375 504.8203125 C252.59683292 505.07180117 251.6975721 505.32328983 250.77106094 505.58239937 C248.24371893 506.28926345 245.71645187 506.99639485 243.18920898 507.70361328 C242.09197242 508.01043958 242.09197242 508.01043958 240.97256947 508.32346439 C240.28463653 508.51603541 239.59670359 508.70860643 238.88792419 508.90701294 C238.23013411 509.08859074 237.57234402 509.27016853 236.8946209 509.45724869 C235.0798443 509.97712703 233.2831831 510.55903165 231.48817444 511.14352417 C224.46440183 512.86812011 218.70384011 511.96878574 211.91943359 509.99414062 C211.14763638 509.7786258 210.37583916 509.56311098 209.58065414 509.34106541 C207.01704762 508.62257743 204.45788221 507.88941278 201.8984375 507.15625 C200.05835893 506.63752724 198.21800948 506.11976453 196.37741089 505.60289001 C191.406591 504.20434281 186.4393872 502.79333401 181.47273254 501.38007736 C176.28957398 499.90752269 171.10321611 498.4463341 165.91699219 496.98461914 C159.48330959 495.17072255 153.04987686 493.3559682 146.61779785 491.53639221 C131.66954566 487.30856284 116.7100495 483.12268324 101.7421875 478.96484375 C99.7267886 478.40466089 97.71139748 477.84445 95.6960144 477.28421021 C87.9735264 475.13785101 80.25088182 472.99206377 72.52703857 470.85058594 C68.05698933 469.61105244 63.58783545 468.36834047 59.11932755 467.12326241 C57.48037413 466.66724367 55.84108392 466.21243349 54.20144272 465.75889397 C51.97751488 465.14364175 49.75474545 464.52437187 47.53222656 463.90405273 C46.28717346 463.55833725 45.04212036 463.21262177 43.75933838 462.85643005 C41 462 41 462 40 461 C39.72026095 458.89352156 39.50587162 456.77837229 39.31520081 454.66197205 C39.25269294 453.98176953 39.19018507 453.30156701 39.12578303 452.60075229 C38.9122514 450.26407636 38.70533349 447.9268589 38.49829102 445.58959961 C38.34293562 443.87296115 38.1872038 442.15635672 38.03113365 440.4397831 C37.59068466 435.58098778 37.15623863 430.72167022 36.722718 425.86225247 C36.34070377 421.58815121 35.9553969 417.31434917 35.5701316 413.04053992 C34.24077521 398.29197693 32.92290563 383.54239291 31.60644848 368.7926745 C31.1185779 363.32698623 30.63016373 357.86134669 30.14150238 352.39572906 C26.1243656 307.46420483 22.12242852 262.53134451 18.13599205 217.59708595 C17.78281097 213.61623667 17.42961782 209.63538846 17.07641602 205.65454102 C16.98877631 204.66674134 16.90113661 203.67894167 16.81084116 202.66120867 C15.36966216 186.41866883 13.92405333 170.17652613 12.47681277 153.93452538 C10.97193075 137.04477692 9.47101944 120.15467925 7.97398859 103.26423305 C7.14064336 93.86304109 6.30559191 84.46200787 5.46598625 75.06137276 C4.7577482 67.13152347 4.05308685 59.20136672 3.3531177 51.27078307 C2.9972522 47.24010918 2.63970802 43.20960348 2.2775135 39.17949295 C1.94578302 35.48791395 1.61900094 31.79593022 1.29601628 28.10357606 C1.12400018 26.15141011 0.9468243 24.19970088 0.76940769 22.24801832 C0.66697272 21.06599048 0.56453774 19.88396263 0.45899868 18.66611576 C0.36970669 17.66112067 0.2804147 16.65612558 0.1884169 15.6206761 C-0.08219886 10.42044185 0 5.2072708 0 0 Z " fill="#5708C8" transform="translate(32,0)"/>
<path d="M0 0 C137.59576651 0 137.59576651 0 153.4375 3.25 C155.07307861 3.58487427 155.07307861 3.58487427 156.74169922 3.92651367 C173.97454406 7.57819277 190.70527104 14.10071015 204 26 C204.75796875 26.67675781 205.5159375 27.35351562 206.296875 28.05078125 C211.98374194 33.42277133 216.12577807 39.2251826 220 46 C220.38929688 46.65484375 220.77859375 47.3096875 221.1796875 47.984375 C230.54644325 64.97523426 231.44109066 87.70420645 227.1015625 106.33984375 C223.70541572 117.62420379 219.08765788 127.30195285 211 136 C210.35804688 136.75539062 209.71609375 137.51078125 209.0546875 138.2890625 C202.55907077 145.47622778 194.4897634 149.59365654 186 154 C188.65168055 155.35253505 191.32467329 156.58322525 194.0625 157.75 C195.71125463 158.49355601 197.3569221 159.24398256 199 160 C199.86109375 160.38671875 200.7221875 160.7734375 201.609375 161.171875 C215.33036336 167.91340107 225.54669869 180.13341147 231.3046875 194.18359375 C239.61862454 218.9736907 237.68756957 246.29452217 226.875 269.9375 C214.93347177 292.68501236 193.88057374 305.06024451 170 312.6875 C116.44980161 326.44692598 47.61932153 318 0 318 C0 213.06 0 108.12 0 0 Z " fill="#DDC9F4" transform="translate(138,97)"/>
<path d="M0 0 C3 1 3 1 4.9375 4.1875 C13.79706213 23.06518239 15.10452647 47.28665646 8.29980469 67.03173828 C4.91166875 76.18396712 0.69015212 83.80493074 -6 91 C-6.64195312 91.75539063 -7.28390625 92.51078125 -7.9453125 93.2890625 C-14.44092923 100.47622778 -22.5102366 104.59365654 -31 109 C-28.34831945 110.35253505 -25.67532671 111.58322525 -22.9375 112.75 C-21.28874537 113.49355601 -19.6430779 114.24398256 -18 115 C-17.13890625 115.38671875 -16.2778125 115.7734375 -15.390625 116.171875 C-1.66963664 122.91340107 8.54669869 135.13341147 14.3046875 149.18359375 C22.61862454 173.9736907 20.68756957 201.29452217 9.875 224.9375 C-2.01990965 247.59620827 -23.12482475 260.22988814 -47 267.6875 C-67.09545953 273.38369806 -87.58467709 273.42498652 -108.29881048 273.30418181 C-112.13572346 273.28511005 -115.97264776 273.28364106 -119.80960083 273.28010559 C-127.03733416 273.27087289 -134.26492732 273.24638141 -141.49259961 273.21605712 C-149.73718933 273.1822355 -157.98178664 273.16595818 -166.22642875 273.15097082 C-183.15103285 273.11982124 -200.07550149 273.06723656 -217 273 C-217.17360882 268.66717379 -217.27831112 264.33525083 -217.37109375 260 C-217.42084351 258.77925781 -217.47059326 257.55851562 -217.52185059 256.30078125 C-217.63264886 249.39629914 -217.33312617 244.8734631 -212.7019043 239.56604004 C-210.43393169 237.39956047 -208.08828768 235.36420911 -205.64501953 233.3984375 C-203.24727209 231.36010308 -201.41312269 228.98884746 -199.5 226.5 C-195.49652544 221.4956568 -191.18663292 216.85300698 -186.796875 212.19140625 C-183.55421929 208.72903789 -180.46555917 205.20694897 -177.5 201.5 C-173.45322919 196.44526967 -169.1132015 191.72687546 -164.68261719 187.01123047 C-161.07855075 183.17481632 -157.57051429 179.27897482 -154.171875 175.2578125 C-153.78515625 174.84273437 -153.3984375 174.42765625 -153 174 C-152.67 174 -152.34 174 -152 174 C-152 189.18 -152 204.36 -152 220 C-140.30440732 219.96702709 -140.30440732 219.96702709 -128.609375 219.88867188 C-123.82611538 219.846605 -119.04322655 219.80938955 -114.25976562 219.80444336 C-110.39494801 219.80010496 -106.53096703 219.77119516 -102.66641235 219.72656822 C-101.20599273 219.71376728 -99.74547206 219.70922226 -98.28500366 219.71384621 C-83.43005219 219.74985917 -68.38335101 216.98090481 -57.26953125 206.34375 C-47.07309467 195.26613989 -47.34842206 183.00053953 -47.81201172 168.6875 C-48.42845152 159.87481261 -52.60316318 153.24604603 -58 146.5 C-71.24920412 135.45899657 -87.15557294 134.94942969 -103.5625 134.4375 C-105.50479492 134.37272461 -105.50479492 134.37272461 -107.48632812 134.30664062 C-110.65746384 134.20132615 -113.82866793 134.09919383 -117 134 C-114.26695118 129.68700688 -111.33555021 126.03890087 -107.8125 122.3125 C-104.26663691 118.52152573 -100.86796851 114.68320643 -97.625 110.625 C-93.55794603 105.56491311 -89.19343903 100.85378313 -84.73803711 96.13916016 C-81.5264977 92.71836763 -78.53934195 89.2332183 -75.6875 85.5 C-72.77424641 81.73423641 -69.77769232 79.1945489 -65.88671875 76.49609375 C-61.9126291 73.34479699 -59.13272472 69.03352658 -56.68359375 64.63671875 C-54.5950534 61.36580289 -52.04547476 58.66640192 -49.375 55.875 C-45.595245 51.85872604 -41.94951246 47.80873168 -38.5 43.5 C-34.16072656 38.09563218 -29.49603585 33.05044877 -24.7734375 27.984375 C-20.38399185 23.27532376 -16.19681526 18.40141126 -12.015625 13.5078125 C-11.47873047 12.8799585 -10.94183594 12.25210449 -10.38867188 11.60522461 C-9.31562597 10.34944755 -8.2439572 9.09249212 -7.17382812 7.83422852 C-6.67818359 7.25342529 -6.18253906 6.67262207 -5.671875 6.07421875 C-5.2294043 5.55432373 -4.78693359 5.03442871 -4.33105469 4.4987793 C-2.94353789 2.93642317 -1.49123772 1.46310631 0 0 Z " fill="#FEFEFE" transform="translate(355,142)"/>
<path d="M0 0 C11.4675 -0.0825 22.935 -0.165 34.75 -0.25 C40.14617676 -0.30462402 40.14617676 -0.30462402 45.65136719 -0.36035156 C50.10400391 -0.37841797 50.10400391 -0.37841797 52.20001221 -0.3817749 C53.63870214 -0.38784709 55.07737399 -0.40176671 56.51593018 -0.42230225 C69.94329855 -0.60410414 82.09793272 1.5270921 93 10 C101.87171894 19.37813841 104.35875883 29.79867945 104.375 42.3125 C104.39949219 43.29412109 104.42398438 44.27574219 104.44921875 45.28710938 C104.48996383 55.54807871 101.22471015 64.39652622 94.16796875 71.96484375 C82.13670081 83.6059084 67.52365974 85.31453878 51.5625 85.1953125 C50.25345703 85.19329834 48.94441406 85.19128418 47.59570312 85.18920898 C42.73043284 85.17878662 37.8652127 85.15086418 33 85.125 C22.11 85.08375 11.22 85.0425 0 85 C0 56.95 0 28.9 0 0 Z " fill="#5006BE" transform="translate(204,277)"/>
<path d="M0 0 C12.375 -0.061875 12.375 -0.061875 25 -0.125 C28.85365234 -0.15231201 28.85365234 -0.15231201 32.78515625 -0.18017578 C73.15444249 -0.34984313 73.15444249 -0.34984313 87.35546875 11.33984375 C94.15331433 18.20227693 97.34054405 27.09169438 97.46899414 36.61206055 C97.45340454 37.94877808 97.45340454 37.94877808 97.4375 39.3125 C97.42775146 40.24167236 97.41800293 41.17084473 97.40795898 42.12817383 C97.11854722 53.32301332 94.36931168 60.70084178 86.48828125 68.83984375 C74.38640142 79.34587129 58.20337921 80.16437342 42.96875 80.09765625 C41.87594727 80.09664917 40.78314453 80.09564209 39.65722656 80.09460449 C35.60480692 80.08940259 31.55240232 80.07544148 27.5 80.0625 C18.425 80.041875 9.35 80.02125 0 80 C0 53.6 0 27.2 0 0 Z " fill="#5A0ACD" transform="translate(204,150)"/>
</svg>
