<?xml version="1.0" encoding="UTF-8"?>
<svg version="1.1" xmlns="http://www.w3.org/2000/svg" width="512" height="512">
<path d="M0 0 C112.53 0 225.06 0 341 0 C341.94396409 3.77585637 341.99751431 5.92296878 341.65732002 9.72007465 C341.5554259 10.89414287 341.45353178 12.06821108 341.34854996 13.27785712 C341.22959079 14.56878955 341.11063162 15.85972197 340.98806763 17.18977356 C340.8653255 18.57411909 340.74317379 19.95851708 340.62156284 21.34296244 C340.28524825 25.15189884 339.94051912 28.96003426 339.59443498 32.76809371 C339.2228066 36.87342099 338.85893316 40.97943632 338.49411011 45.08537292 C337.77795329 53.13155961 337.05464026 61.17708785 336.32898535 69.22242288 C335.48439562 78.58965961 334.6470903 87.95754309 333.81015693 97.32546648 C332.3165175 114.04144015 330.81659065 130.75684362 329.31298828 147.47192383 C327.85381109 163.69323801 326.39848836 179.9148914 324.94775391 196.13696289 C324.81379312 197.63489559 324.81379312 197.63489559 324.67712606 199.16308955 C324.31816212 203.17705808 323.95920145 207.19102691 323.60025085 211.20499663 C322.21815574 226.65894517 320.83311154 242.11262959 319.44752572 257.5662655 C319.0288934 262.23542456 318.61039361 266.90459543 318.19219828 271.57379365 C317.31255401 281.39488738 316.43190497 291.21588882 315.54792084 301.036593 C315.18235281 305.09806708 314.81734615 309.15958936 314.45392609 313.22125626 C314.12113157 316.94034212 313.78661371 320.65926882 313.45072018 324.37807604 C313.27223966 326.35891208 313.09555515 328.3399097 312.91893685 330.32091266 C312.41268544 335.90709851 311.87937429 341.45936171 311 347 C305.4055 349.17860879 299.82349758 350.98843643 294.03417969 352.56860352 C293.17400238 352.8065715 292.31382507 353.04453949 291.42758179 353.28971863 C288.59328857 354.07290972 285.75759823 354.85091035 282.921875 355.62890625 C280.9119574 356.18325903 278.90213251 356.7379481 276.89239502 357.29295349 C271.58722804 358.75709746 266.28087648 360.2169011 260.97424316 361.67572021 C254.67290626 363.40880854 248.37286325 365.14659446 242.07289886 366.88466454 C236.93622316 368.30152716 231.79884719 369.71572927 226.65979004 371.12393188 C217.16933548 373.72716502 207.69160932 376.36298676 198.24023438 379.10498047 C195.77306717 379.81434721 193.30556063 380.52251997 190.83792877 381.23026848 C188.59160836 381.88035415 186.35099024 382.54786554 184.11004639 383.21620178 C182.75363999 383.60590619 181.39698556 383.99474877 180.04003906 384.38256836 C178.88924866 384.72122421 177.73845825 385.05988007 176.55279541 385.40879822 C169.10973963 386.64735753 162.11855714 384.69776694 154.96826172 382.67431641 C154.11275726 382.43824677 153.25725281 382.20217712 152.37582397 381.95895386 C149.55856626 381.17975932 146.74416143 380.39074744 143.9296875 379.6015625 C141.9286387 379.04583455 139.92742465 378.49070134 137.92605591 377.93612671 C132.64245046 376.47023067 127.3612315 374.99590879 122.08044434 373.51989746 C116.85589531 372.0613054 111.6289944 370.61119542 106.40234375 369.16015625 C95.24913304 366.06184465 84.10073791 362.94647703 72.95365906 359.82618713 C69.99339668 358.99815294 67.03271526 358.17163384 64.07189941 357.34558105 C59.41544494 356.04634635 54.75992728 354.74381103 50.10516739 353.43851852 C48.38514811 352.95670012 46.66482229 352.47597459 44.94417953 351.99638748 C42.59877657 351.34235626 40.25456971 350.68420668 37.91064453 350.02490234 C36.8717552 349.73667414 36.8717552 349.73667414 35.8118782 349.44262314 C31.11422574 348.11422574 31.11422574 348.11422574 30 347 C29.69829216 344.87835365 29.46244532 342.74735936 29.24995422 340.6149292 C29.1800559 339.92200665 29.11015758 339.2290841 29.03814113 338.5151639 C28.79808914 336.11572841 28.56542979 333.71563931 28.33325195 331.31542969 C28.15904924 329.54330749 27.98483838 327.77118609 27.81062031 325.9990654 C25.07666478 297.97920482 22.61556835 269.93241496 20.10940719 241.89145374 C19.66425015 236.91076919 19.21848767 231.93013892 18.77263832 226.9495163 C17.53307828 213.10085173 16.29432601 199.25211543 15.05857372 185.4031105 C14.98033714 184.52633537 14.90210056 183.64956024 14.82149317 182.74621616 C14.74310651 181.86775276 14.66471986 180.98928937 14.58395785 180.08420587 C14.42519539 178.30499779 14.26643144 176.52578984 14.10766602 174.74658203 C14.02891911 173.86409506 13.95017221 172.98160809 13.86903904 172.07237908 C12.58340017 157.66653292 11.29171404 143.26123557 9.99755915 128.85615221 C8.66237527 113.99339198 7.33221449 99.1301892 6.00711995 84.26652598 C5.2654884 75.94894155 4.52169105 67.63156352 3.77229881 59.31467438 C3.1371013 52.26490515 2.50646105 45.21474731 1.88186147 38.16403088 C1.56334932 34.57011742 1.2426416 30.97643502 0.91609764 27.38324165 C0.56274961 23.49442817 0.21976831 19.60474112 -0.12214661 15.71490479 C-0.22738657 14.57488361 -0.33262654 13.43486243 -0.4410556 12.26029515 C-0.53064943 11.22153005 -0.62024327 10.18276495 -0.71255207 9.11252213 C-0.79278309 8.21528183 -0.87301411 7.31804154 -0.95567638 6.39361215 C-1 4 -1 4 0 0 Z " fill="#1874B7" transform="translate(86,63)"/>
<path d="M0 0 C72.27 0 144.54 0 219 0 C216.67857143 29.01785714 216.67857143 29.01785714 215 43 C181.38150561 57.44942733 147.70915546 71.76316323 114 86 C146.01 86.33 178.02 86.66 211 87 C211 93.79881263 210.92988228 99.98524973 210.0625 106.625 C209.25837654 113.25343431 208.73355682 119.8414634 208.39930725 126.50842285 C208.14795074 131.17084382 207.715673 135.77639859 207.15625 140.4140625 C206.12869067 149.27964542 205.33911425 158.1643763 204.5625 167.0546875 C204.43462677 168.50877726 204.30665575 169.96285843 204.17858887 171.41693115 C203.64878069 177.44044146 203.12008916 183.46402373 202.60449219 189.48876953 C202.28499062 193.21894166 201.9575881 196.94834758 201.62496948 200.67737198 C201.50082584 202.08609565 201.37962998 203.49508246 201.26150513 204.90432358 C201.09719119 206.86117548 200.92188962 208.81709538 200.74609375 210.77294922 C200.64997803 211.882258 200.5538623 212.99156677 200.45483398 214.13449097 C200.01562114 216.90158493 199.58708177 218.70221275 198 221 C195.22104707 222.15890832 192.6290381 223.05373593 189.75 223.875 C188.90953125 224.12765625 188.0690625 224.3803125 187.203125 224.640625 C179.90264819 226.80929605 172.54639967 228.78391412 165.18969727 230.75170898 C159.30343912 232.33573915 153.48726145 234.06286101 147.6875 235.9375 C140.11019176 238.36253189 132.51060609 240.70232038 124.875 242.9375 C123.31011841 243.4159436 123.31011841 243.4159436 121.71362305 243.90405273 C111.96413263 246.71035572 104.93039767 245.59574161 95.5 242.375 C87.88636401 239.86978912 80.22839823 237.62401438 72.5 235.5 C64.18222244 233.20491887 55.9286876 230.78218786 47.71484375 228.13989258 C40.95804845 225.96817044 34.15913624 223.95939817 27.34375 221.98046875 C25.218016 221.35715189 23.10155705 220.70051902 21 220 C19.38515179 210.56692324 18.35242662 201.15944076 17.56738281 191.62719727 C17.37662043 189.3319966 17.17307834 187.03816831 16.96875 184.74414062 C16.84036365 183.22141991 16.71273616 181.69863499 16.5859375 180.17578125 C16.52659027 179.52201004 16.46724304 178.86823883 16.40609741 178.19465637 C15.73925733 169.76782975 16 161.52476696 16 153 C30.52 153 45.04 153 60 153 C60.99 164.22 61.98 175.44 63 187 C69.13629869 188.57432736 75.27346658 190.14344367 81.41430664 191.69970703 C83.50133252 192.23024374 85.58760855 192.76373957 87.6730957 193.30029297 C90.67725712 194.07264833 93.68398719 194.83419204 96.69140625 195.59375 C97.61772354 195.83436157 98.54404083 196.07497314 99.49842834 196.32287598 C106.68388966 198.12032012 112.69511928 198.66606038 119.875 196.4375 C121.06867188 196.07785156 122.26234375 195.71820313 123.4921875 195.34765625 C124.18151367 195.13898926 124.87083984 194.93032227 125.58105469 194.71533203 C131.79304877 192.87831723 138.04997055 191.19245959 144.29248047 189.46264648 C145.84926514 189.02867554 145.84926514 189.02867554 147.4375 188.5859375 C148.36433594 188.3286084 149.29117188 188.0712793 150.24609375 187.80615234 C153.19106691 186.94406889 156.09468341 185.98680212 159 185 C159.27049696 181.02483648 159.53666365 177.04940396 159.79956055 173.07373047 C159.93138138 171.091985 160.06620364 169.11043985 160.20117188 167.12890625 C161.02442883 154.76231665 161.51999861 142.38405544 162 130 C160.93797363 130.00523682 159.87594727 130.01047363 158.78173828 130.01586914 C125.10129537 130.16324116 91.4282372 129.85732024 57.75 129.5 C56.62264687 129.48804218 55.49529373 129.47608437 54.33377838 129.46376419 C40.22246873 129.31366875 26.11121269 129.15894056 12 129 C11.56470847 124.94808413 11.13789169 120.89536534 10.71826172 116.84179688 C10.57497129 115.46851682 10.42953278 114.09545887 10.28173828 112.72265625 C9.35816473 104.12776772 8.7797407 95.65129603 9 87 C23.14656832 80.73487127 37.39204892 74.7277903 51.6875 68.8125 C52.55607635 68.452771 53.42465271 68.09304199 54.31954956 67.72241211 C63.20985105 64.04045507 72.10323757 60.36620565 81.00508118 56.7122345 C84.37219132 55.32881792 87.73715538 53.94023483 91.10171509 52.55062866 C92.69424579 51.89448259 94.28780846 51.24083534 95.88241577 50.5897522 C98.08040497 49.69217731 100.27489079 48.78651908 102.46875 47.87890625 C103.12083939 47.61511169 103.77292877 47.35131714 104.44477844 47.07952881 C107.87459805 45.80358687 107.87459805 45.80358687 110 43 C75.35 43 40.7 43 5 43 C3.44777096 39.89554192 3.39639692 36.51858419 3.02734375 33.10546875 C2.93997452 32.3210994 2.85260529 31.53673004 2.7625885 30.72859192 C2.57840152 29.06690522 2.39611569 27.40500687 2.21557617 25.74291992 C1.93968687 23.20759656 1.65684401 20.67312086 1.37304688 18.13867188 C1.19489498 16.5234835 1.01714752 14.90825045 0.83984375 13.29296875 C0.71330666 12.15990547 0.71330666 12.15990547 0.58421326 11.00395203 C0.18445235 7.29054696 0 3.74696414 0 0 Z " fill="#E7E8E7" transform="translate(146,133)"/>
<path d="M0 0 C47.52 0 95.04 0 144 0 C144 6.14556873 143.94853505 11.79199611 143.37670898 17.83618164 C143.27628154 18.91896298 143.27628154 18.91896298 143.17382526 20.0236187 C142.95216171 22.40288419 142.72407773 24.78148881 142.49609375 27.16015625 C142.33573433 28.870933 142.17585511 30.58175481 142.01641846 32.2926178 C141.67421168 35.95761218 141.32947511 39.6223559 140.98275757 43.28692627 C140.0436162 53.22005526 139.12412775 63.15501967 138.203125 73.08984375 C138.10888937 74.10497543 138.01465374 75.12010712 137.91756248 76.16600037 C136.09466648 95.81236379 134.36848685 115.46605098 132.6875 135.125 C132.12833265 141.65761458 131.56839414 148.19016289 131.0078125 154.72265625 C130.93419369 155.58089115 130.86057487 156.43912605 130.78472519 157.32336807 C128.32156146 186.0191534 125.78119876 214.70827313 123.25317812 243.39840221 C122.93560632 247.0026775 122.61812329 250.6069606 122.30062866 254.21124268 C120.86800265 270.47424264 119.43449852 286.73716509 118 303 C115.75966304 303.64107948 113.51925155 304.28189847 111.27880859 304.92260742 C110.03118744 305.27949142 108.78356628 305.63637543 107.49813843 306.0040741 C103.54633065 307.12916043 99.58742444 308.22561574 95.625 309.3125 C88.35100698 311.31633057 81.112006 313.4293684 73.875 315.5625 C65.94672443 317.89646131 58.01766157 320.03100089 49.984375 321.97265625 C45.27379402 323.15030149 40.64222429 324.58036088 36 326 C24.43525737 329.53296533 12.80896879 332.37578471 1 335 C0.67 320.48 0.34 305.96 0 291 C11.38130262 287.48725228 22.74270625 284.01173988 34.25 280.9375 C41.85333453 278.90338391 49.36291847 276.67850031 56.85253906 274.26074219 C65.51625321 271.47794107 74.27105675 269.0208589 83.03320312 266.5690918 C84.70103946 266.0865041 86.3528473 265.5490509 88 265 C89.74264645 255.69067361 90.69547415 246.3737933 91.47265625 236.9453125 C91.60143226 235.42979826 91.73070928 233.91432651 91.86045837 232.39889526 C92.19786424 228.4462602 92.5299489 224.49319888 92.8604126 220.53997803 C93.39147364 214.19371032 93.92918028 207.84801028 94.46990776 201.50255966 C94.65664293 199.29926626 94.8401033 197.09571799 95.02320862 194.89212036 C95.13783869 193.53630653 95.2525741 192.18050161 95.36743164 190.82470703 C95.51493614 189.06031784 95.51493614 189.06031784 95.66542053 187.26028442 C95.98549674 184.14132594 96.46596032 181.08839055 97 178 C97.18109556 175.97612795 97.33488525 173.94967294 97.46484375 171.921875 C97.54283203 170.75914062 97.62082031 169.59640625 97.70117188 168.3984375 C97.855684 166.01307679 98.00936462 163.62766203 98.16210938 161.2421875 C98.82228475 151.43080062 99.9105532 141.8050212 101 132 C68.66 132 36.32 132 3 132 C4.34034092 129.31931816 5.61287195 129.12169724 8.35644531 127.96313477 C9.29379517 127.56348511 10.23114502 127.16383545 11.19689941 126.7520752 C12.23020386 126.31955444 13.2635083 125.88703369 14.328125 125.44140625 C15.40461304 124.98463501 16.48110107 124.52786377 17.59020996 124.05725098 C21.14078475 122.55255537 24.69529185 121.05740174 28.25 119.5625 C30.6919605 118.53040755 33.13369066 117.49776995 35.57519531 116.46459961 C40.57978329 114.34760035 45.58624521 112.23508947 50.59375 110.125 C57.5789992 107.18093875 64.55579613 104.21718093 71.53125 101.25 C74.62034823 99.9379555 77.70968708 98.6264802 80.79919434 97.31539917 C82.76516571 96.48065633 84.73074282 95.64498429 86.69592285 94.80838013 C89.41561638 93.65133075 92.1372042 92.49886279 94.859375 91.34765625 C95.66201782 91.00504761 96.46466064 90.66243896 97.29162598 90.30944824 C102.7714518 88 102.7714518 88 105 88 C105.03738281 86.99066406 105.07476562 85.98132813 105.11328125 84.94140625 C105.72824253 71.42431625 107.37279081 58.56007662 109 45 C36.73 45 -35.54 45 -110 45 C-110 44.67 -110 44.34 -110 44 C-73.7 44 -37.4 44 0 44 C0 29.48 0 14.96 0 0 Z " fill="#35A8DA" transform="translate(256,88)"/>
<path d="M0 0 C33.33 0 66.66 0 101 0 C101 6.41684077 100.87316667 12.28268775 100.0625 18.5625 C99.26062476 25.2113822 98.73462336 31.82107892 98.39930725 38.50804138 C98.14796065 43.17059238 97.71568851 47.77627003 97.15625 52.4140625 C96.12869067 61.27964542 95.33911425 70.1643763 94.5625 79.0546875 C94.43462677 80.50877726 94.30665575 81.96285843 94.17858887 83.41693115 C93.64878069 89.44044146 93.12008916 95.46402373 92.60449219 101.48876953 C92.28499062 105.21894166 91.9575881 108.94834758 91.62496948 112.67737198 C91.50082584 114.08609565 91.37962998 115.49508246 91.26150513 116.90432358 C91.09719119 118.86117548 90.92188962 120.81709538 90.74609375 122.77294922 C90.64997803 123.882258 90.5538623 124.99156677 90.45483398 126.13449097 C90.01562114 128.90158493 89.58708177 130.70221275 88 133 C85.22104707 134.15890832 82.6290381 135.05373593 79.75 135.875 C78.90953125 136.12765625 78.0690625 136.3803125 77.203125 136.640625 C69.90264819 138.80929605 62.54639967 140.78391412 55.18969727 142.75170898 C49.30343912 144.33573915 43.48726145 146.06286101 37.6875 147.9375 C30.11019176 150.36253189 22.51060609 152.70232038 14.875 154.9375 C13.31011841 155.4159436 13.31011841 155.4159436 11.71362305 155.90405273 C1.96413263 158.71035572 -5.06960233 157.59574161 -14.5 154.375 C-22.11363599 151.86978912 -29.77160177 149.62401438 -37.5 147.5 C-45.81777756 145.20491887 -54.0713124 142.78218786 -62.28515625 140.13989258 C-69.04195155 137.96817044 -75.84086376 135.95939817 -82.65625 133.98046875 C-84.781984 133.35715189 -86.89844295 132.70051902 -89 132 C-90.61484821 122.56692324 -91.64757338 113.15944076 -92.43261719 103.62719727 C-92.62337957 101.3319966 -92.82692166 99.03816831 -93.03125 96.74414062 C-93.15963635 95.22141991 -93.28726384 93.69863499 -93.4140625 92.17578125 C-93.47340973 91.52201004 -93.53275696 90.86823883 -93.59390259 90.19465637 C-94.26074267 81.76782975 -94 73.52476696 -94 65 C-79.48 65 -64.96 65 -50 65 C-49.01 76.22 -48.02 87.44 -47 99 C-40.86370131 100.57432736 -34.72653342 102.14344367 -28.58569336 103.69970703 C-26.49866748 104.23024374 -24.41239145 104.76373957 -22.3269043 105.30029297 C-19.32274288 106.07264833 -16.31601281 106.83419204 -13.30859375 107.59375 C-12.38227646 107.83436157 -11.45595917 108.07497314 -10.50157166 108.32287598 C-3.31611034 110.12032012 2.69511928 110.66606038 9.875 108.4375 C11.06867188 108.07785156 12.26234375 107.71820313 13.4921875 107.34765625 C14.18151367 107.13898926 14.87083984 106.93032227 15.58105469 106.71533203 C21.79304877 104.87831723 28.04997055 103.19245959 34.29248047 101.46264648 C35.33033691 101.17333252 36.36819336 100.88401855 37.4375 100.5859375 C38.36433594 100.3286084 39.29117188 100.0712793 40.24609375 99.80615234 C43.19106691 98.94406889 46.09468341 97.98680212 49 97 C49.27049696 93.02483648 49.53666365 89.04940396 49.79956055 85.07373047 C49.93138138 83.091985 50.06620364 81.11043985 50.20117188 79.12890625 C51.01632818 66.75060677 51.48300392 54.40790601 52 42 C34.84 42 17.68 42 0 42 C0 28.14 0 14.28 0 0 Z " fill="#FDFEFD" transform="translate(256,221)"/>
<path d="M0 0 C35.97 0 71.94 0 109 0 C106.67857143 29.01785714 106.67857143 29.01785714 105 43 C89.88770656 49.49535292 74.76801527 55.97329649 59.64385986 62.440979 C56.5897132 63.74769193 53.53606918 65.05556908 50.48272133 66.36414719 C43.87472419 69.19608244 37.26339751 72.0201101 30.64880371 74.83660889 C28.34262764 75.81995651 26.03752918 76.80583525 23.73352051 77.79425049 C20.50617182 79.17819245 17.27510601 80.55306757 14.04296875 81.92578125 C12.60092323 82.547696 12.60092323 82.547696 11.12974548 83.18217468 C10.24541336 83.55558487 9.36108124 83.92899506 8.44995117 84.3137207 C7.29930428 84.80495171 7.29930428 84.80495171 6.12541199 85.30610657 C4 86 4 86 0 86 C-0.02470469 80.50073576 -0.04286223 75.00150378 -0.05493164 69.50219727 C-0.05996279 67.63109779 -0.06678835 65.76000225 -0.07543945 63.88891602 C-0.08755829 61.20067372 -0.09324047 58.51248336 -0.09765625 55.82421875 C-0.10281754 54.98662521 -0.10797882 54.14903168 -0.11329651 53.28605652 C-0.11362064 49.93624258 -0.06684515 47.20053544 1 44 C2.32 44 3.64 44 5 44 C5 43.34 5 42.68 5 42 C3.35 42 1.7 42 0 42 C0 28.14 0 14.28 0 0 Z " fill="#FEFEFD" transform="translate(256,133)"/>
<path d="M0 0 C14.52 0 29.04 0 44 0 C44.99 11.22 45.98 22.44 47 34 C70.76 39.94 70.76 39.94 95 46 C94.67 61.51 94.34 77.02 94 93 C75.85714286 88.46428571 75.85714286 88.46428571 68.4375 86 C62.82159031 84.17960788 57.21628047 82.47675706 51.5 81 C44.99798305 79.31506873 38.61786635 77.34273306 32.22265625 75.29223633 C25.29479876 73.07518112 18.32884446 71.00875723 11.34375 68.98046875 C9.218016 68.35715189 7.10155705 67.70051902 5 67 C3.38515179 57.56692324 2.35242662 48.15944076 1.56738281 38.62719727 C1.37662043 36.3319966 1.17307834 34.03816831 0.96875 31.74414062 C0.84036365 30.22141991 0.71273616 28.69863499 0.5859375 27.17578125 C0.52659027 26.52201004 0.46724304 25.86823883 0.40609741 25.19465637 C-0.26074267 16.76782975 0 8.52476696 0 0 Z " fill="#E7E7E7" transform="translate(162,286)"/>
<path d="M0 0 C16.83 0 33.66 0 51 0 C51 27.60810811 51 27.60810811 50 41 C49.90288432 42.38406136 49.80653186 43.76817648 49.7109375 45.15234375 C49.48134625 48.4354987 49.24446515 51.71792535 49 55 C42.83287529 57.88617927 36.49799762 59.65589678 29.9375 61.4375 C27.70432087 62.05169728 25.47124724 62.6662783 23.23828125 63.28125 C21.63073975 63.72210938 21.63073975 63.72210938 19.99072266 64.171875 C15.13629872 65.51605508 10.30577454 66.93910656 5.4765625 68.37109375 C3 69 3 69 0 69 C0 46.23 0 23.46 0 0 Z " fill="#35A8DB" transform="translate(257,263)"/>
<path d="M0 0 C0.66 0 1.32 0 2 0 C2.33 3.3 2.66 6.6 3 10 C5.475 10.99 5.475 10.99 8 12 C5 13 5 13 2.859375 12.4140625 C1 11 1 11 0.390625 8.3984375 C0.34421875 7.40070313 0.2978125 6.40296875 0.25 5.375 C0.19328125 4.37210937 0.1365625 3.36921875 0.078125 2.3359375 C0.05234375 1.56507813 0.0265625 0.79421875 0 0 Z " fill="#79AFD7" transform="translate(115,399)"/>
</svg>
