<?xml version="1.0" encoding="UTF-8"?>
<svg version="1.1" xmlns="http://www.w3.org/2000/svg" width="1536" height="1536">
<path d="M0 0 C88.37720072 -0.03957155 176.75440859 -0.06314511 736.89167871 0.41376363 C745.73617777 0.43215118 754.58067777 0.45002247 763.42517853 0.46757126 C881.44071123 0.70177039 999.45469822 1.06491712 1184 2 C1182.37893202 26.93251083 1180.16974248 51.81477668 1178.00565213 76.70469594 C1177.45339839 83.06185454 1176.90362693 89.41922791 1176.35352707 95.77657318 C1175.39214931 106.88388464 1174.42908316 117.99104892 1173.46501732 129.09812737 C1172.43366762 140.98048276 1171.40326279 152.86291954 1170.3739872 164.74545479 C1170.27620031 165.87435153 1170.27620031 165.87435153 1170.17643794 167.02605427 C1169.8440759 170.86304262 1169.51172866 174.70003225 1169.17938624 178.5370223 C1166.78473986 206.18352719 1164.38802988 233.82985288 1161.9901123 261.47607422 C1161.91736111 262.31484241 1161.84460992 263.15361061 1161.76965414 264.01779602 C1161.6967927 264.85783512 1161.62393126 265.69787422 1161.5488619 266.56336904 C1161.10549122 271.67510895 1160.66212473 276.78684921 1160.21876526 281.89859009 C1160.10864323 283.16824863 1160.10864323 283.16824863 1159.99629652 284.46355684 C1158.29297955 304.10227553 1156.59056623 323.74107253 1154.88830566 343.37988281 C1154.73968375 345.09450777 1154.59106178 346.80913273 1154.44243975 348.52375768 C1153.77078305 356.27255395 1153.09913549 364.02135102 1152.42749452 371.77014866 C1150.83959217 390.08994705 1149.25159562 408.40973728 1147.6635437 426.72952271 C1147.55027039 428.03624951 1147.55027039 428.03624951 1147.43470873 429.36937484 C1145.19435498 455.21417091 1142.95352684 481.05892582 1140.71233021 506.90364881 C1133.10354961 594.64558541 1125.50172725 682.38812086 1117.68617532 772.68985657 C1115.51588006 797.76566078 1113.34492626 822.84140789 1111.17332458 847.917099 C1111.10311429 848.72782838 1111.032904 849.53855777 1110.96056612 850.37385471 C1109.49260805 867.32457904 1108.02454148 884.27529397 1106.55634355 901.22599753 C1105.87128908 909.13512952 1105.18626341 917.04426401 1104.50125122 924.95339966 C1104.4338725 925.73134607 1104.36649377 926.50929249 1104.29707326 927.31081304 C1102.12786748 952.35632541 1099.96056258 977.40200184 1097.79419762 1002.44776008 C1095.61995959 1027.58440459 1093.44368168 1052.72087161 1091.264581 1077.85709507 C1090.96447526 1081.31886136 1090.66439282 1084.78062967 1090.36432457 1088.24239922 C1090.30552174 1088.9207749 1090.2467189 1089.59915058 1090.18613417 1090.29808311 C1089.19787875 1101.6997862 1088.21221479 1113.10171194 1087.22724186 1124.50369902 C1086.37346968 1134.38488121 1085.51737781 1144.26586059 1084.65934582 1154.14667378 C1084.17022287 1159.78004107 1083.68215367 1165.41349444 1083.19690883 1171.04719722 C1082.75650774 1176.16003592 1082.31317065 1181.27261087 1081.86740258 1186.38498437 C1081.70703937 1188.23026208 1081.54778277 1190.07563634 1081.38971952 1191.92111249 C1081.17620608 1194.41217818 1080.95874947 1196.90286842 1080.74025345 1199.39350128 C1080.67941699 1200.1145151 1080.61858053 1200.83552892 1080.55590054 1201.57839164 C1079.91243787 1208.81058391 1079.91243787 1208.81058391 1079 1211 C1076.20868334 1212.18039097 1073.62872273 1213.06107955 1070.72802734 1213.87451172 C1069.87541006 1214.1279579 1069.02279278 1214.38140408 1068.14433861 1214.64253044 C1065.43391586 1215.44417842 1062.71742472 1216.22246292 1060 1217 C1058.33752711 1217.48851146 1056.67550661 1217.97856551 1055.01397705 1218.47027588 C1049.80010465 1220.00709738 1044.57624299 1221.50822775 1039.3515625 1223.0078125 C1037.39349515 1223.57181753 1035.4354942 1224.1360531 1033.47755432 1224.70050049 C1029.33872605 1225.89321813 1025.19949083 1227.08450801 1021.05990601 1228.27459717 C1014.52269648 1230.15403565 1007.98646811 1232.0368697 1001.45043945 1233.92041016 C999.24226425 1234.55673375 997.03408859 1235.19305577 994.82591248 1235.82937622 C993.18895825 1236.30109945 993.18895825 1236.30109945 991.51893425 1236.78235245 C988.21716319 1237.73370669 984.91530314 1238.68475144 981.61341858 1239.63571167 C964.1477027 1244.6663028 946.68784202 1249.71684453 929.23205948 1254.78178406 C925.80215166 1255.77695002 922.37214263 1256.77176702 918.94213867 1257.76660156 C917.92212501 1258.06244707 917.92212501 1258.06244707 916.88150501 1258.36426926 C915.50801655 1258.76263635 914.13452749 1259.16100137 912.76103783 1259.55936432 C911.39202615 1259.95643822 910.02301902 1260.35352779 908.65401649 1260.75063324 C892.05117919 1265.56660249 875.44570309 1270.37345114 858.84003067 1275.17963409 C856.44139475 1275.87387274 854.04276391 1276.56812894 851.64413452 1277.26239014 C845.23942939 1279.11616742 838.83471506 1280.96991293 832.42997742 1282.82357788 C817.32347756 1287.19571518 802.21718586 1291.56857143 787.11093235 1295.94155979 C781.58187693 1297.54211043 776.0527858 1299.14253765 770.52368164 1300.74291992 C767.36213902 1301.6580303 764.20059944 1302.57315122 761.0390625 1303.48828125 C760.25648764 1303.71480314 759.47391277 1303.94132504 758.66762352 1304.17471123 C749.89115339 1306.71516829 741.11484008 1309.2561656 732.33886719 1311.79833984 C731.53965599 1312.02984867 730.74044479 1312.2613575 729.91701508 1312.49988174 C726.68681967 1313.43559257 723.45662909 1314.37131998 720.22647095 1315.30715942 C711.46715837 1317.84489799 702.7074227 1320.3811524 693.94628906 1322.91259766 C690.83136143 1323.81276055 687.71645798 1324.7130071 684.6015625 1325.61328125 C683.83552704 1325.83464752 683.06949158 1326.05601379 682.28024292 1326.28408813 C672.0436586 1329.24284495 661.81288139 1332.22083748 651.58670044 1335.21534729 C646.17844659 1336.79871189 640.76810367 1338.37487823 635.35713768 1339.94894695 C631.02236303 1341.21053592 626.69035768 1342.48108946 622.36027718 1343.75869083 C619.09162431 1344.72009042 615.81896273 1345.6675462 612.546875 1346.6171875 C610.8055983 1347.13571541 610.8055983 1347.13571541 609.02914429 1347.66471863 C607.95057159 1347.97500504 606.8719989 1348.28529144 605.76074219 1348.60498047 C604.83525574 1348.87615692 603.90976929 1349.14733337 602.95623779 1349.42672729 C596.41904974 1350.69441675 591.04914626 1350.01394558 584.70141602 1348.19360352 C584.01212635 1347.99910583 583.32283669 1347.80460814 582.61265945 1347.60421658 C580.32347334 1346.95563337 578.0388496 1346.29226757 575.75390625 1345.62890625 C574.10587825 1345.1589566 572.45757011 1344.68998842 570.80900574 1344.22192383 C567.25964418 1343.21211758 563.71221058 1342.19588536 560.1661377 1341.17459106 C554.47152669 1339.53470286 548.77279186 1337.9094932 543.07324219 1336.28686523 C537.09258962 1334.58361556 531.11214435 1332.8796651 525.13302612 1331.17103577 C506.18826661 1325.75801953 487.22200311 1320.42295824 468.25045776 1315.10470581 C462.69921496 1313.54848844 457.14849658 1311.99040664 451.59790039 1310.43188477 C450.67414329 1310.17251287 449.75038618 1309.91314096 448.79863644 1309.64590931 C446.93043965 1309.1213579 445.06224348 1308.59680429 443.19404793 1308.07224846 C439.45907725 1307.02361385 435.7240305 1305.97525036 431.9889822 1304.92689228 C419.90369972 1301.5347642 407.81892668 1298.14082432 395.734375 1294.74609375 C394.8166544 1294.48829384 393.89893379 1294.23049393 392.95340347 1293.9648819 C388.32010467 1292.66331913 383.6868137 1291.36172846 379.05352783 1290.06011963 C369.80915512 1287.46314151 360.56473835 1284.86632021 351.3203125 1282.26953125 C349.94683969 1281.8837151 349.94683969 1281.8837151 348.54561996 1281.49010468 C335.35819245 1277.78570128 322.17054516 1274.08208107 308.98277473 1270.37889862 C301.38804371 1268.24623726 293.79336166 1266.1134015 286.19869614 1263.9805069 C284.3179432 1263.45231619 282.4371881 1262.9241332 280.55643082 1262.39595795 C260.70873446 1256.82207079 240.86169289 1251.24590637 221.01953125 1245.65234375 C220.26637823 1245.44003868 219.51322521 1245.22773361 218.73724937 1245.00899506 C212.12357743 1243.14464605 205.50996045 1241.28010223 198.89657593 1239.41473389 C182.45821828 1234.77840078 166.01470788 1230.16118169 149.5625 1225.57421875 C147.95428787 1225.12569849 146.34607761 1224.67717152 144.73786926 1224.2286377 C137.79830709 1222.29346367 130.85841809 1220.35949405 123.91706657 1218.43074703 C121.12318915 1217.65405125 118.32975504 1216.87577017 115.53642273 1216.09711647 C113.61872387 1215.56317278 111.70042091 1215.03140026 109.78210449 1214.49967957 C108.64704468 1214.18307877 107.51198486 1213.86647797 106.3425293 1213.5402832 C105.35310837 1213.26529495 104.36368744 1212.9903067 103.34428406 1212.70698547 C101 1212 101 1212 99 1211 C98.59930038 1208.52386376 98.33637521 1206.13692465 98.14247036 1203.64129066 C98.07323515 1202.84700401 98.00399994 1202.05271735 97.9326667 1201.2343614 C97.69692387 1198.49993508 97.47521757 1195.76454053 97.25328064 1193.02896118 C97.08343266 1191.02035066 96.9128231 1189.01180443 96.74153131 1187.00331652 C96.25501959 1181.26315898 95.78176164 1175.5219688 95.31088528 1169.78051001 C94.93798325 1165.24584742 94.56043081 1160.71157951 94.18257151 1156.17732773 C92.63510947 1137.60491027 91.1125299 1119.03048259 89.59480006 1100.45561505 C88.85393983 1091.38922896 88.11117939 1082.32299875 87.36839701 1073.25676998 C85.99118895 1056.44624989 84.61543633 1039.635611 83.24054146 1022.82490158 C81.86297243 1005.98154331 80.48474271 989.13823931 79.10569572 972.29500198 C78.97517276 970.70082757 78.97517276 970.70082757 78.84201296 969.07444762 C78.39922654 963.66640078 77.95642974 958.25835479 77.51362943 952.85030909 C74.37214464 914.48217933 71.23215699 876.11392718 68.09301758 837.74560547 C65.11828741 801.38681143 62.1427976 765.02807969 59.16625977 728.66943359 C58.98449156 726.44910757 58.80272345 724.22878153 58.62095542 722.00845549 C57.89533453 713.14489116 57.16970883 704.28132723 56.44407824 695.4177637 C49.59858407 611.80008277 42.75629987 528.1821397 35.9172625 444.56393044 C35.03122686 433.73072897 34.14516801 422.8975294 33.25909424 412.06433105 C33.17151173 410.99353643 33.08392922 409.92274181 32.9936927 408.81949887 C30.03516905 372.64838738 27.07477949 336.47742886 24.11353246 300.30654024 C21.24695279 265.29191599 18.38161306 230.27719048 15.51779735 195.26234006 C15.10634444 190.23166136 14.69487653 185.20098389 14.28339958 180.17030716 C14.20263411 179.1828704 14.12186864 178.19543363 14.03865574 177.17807454 C12.75283582 161.4581339 11.46565597 145.73830492 10.17793341 130.01852004 C8.90657903 114.49819217 7.63667274 98.97774639 6.36830573 83.45717409 C5.62039657 74.30581421 4.87135331 65.15454879 4.12068682 56.00341466 C3.62188165 49.9212916 3.12453389 43.83905053 2.62840002 37.75670898 C2.34610659 34.29645857 2.06316271 30.83626466 1.77843685 27.37621348 C1.47322004 23.66303531 1.1704726 19.94966404 0.86837673 16.23623085 C0.77912048 15.15768576 0.68986423 14.07914067 0.59790324 12.96791239 C0.51819394 11.98176287 0.43848464 10.99561336 0.3563599 9.97958052 C0.28700017 9.13203132 0.21764044 8.28448212 0.1461789 7.41124962 C-0.00395674 4.93473276 -0.02524031 2.48043176 0 0 Z " fill="#FF4E1D" transform="translate(176,93)"/>
<path d="M0 0 C247.17 0 494.34 0 749 0 C749 13.49880505 749 13.49880505 748.54443359 18.03808594 C748.44345871 19.07421021 748.34248383 20.11033447 748.2384491 21.17785645 C748.07014336 22.81458313 748.07014336 22.81458313 747.8984375 24.484375 C747.78143997 25.67091675 747.66444244 26.8574585 747.54389954 28.07995605 C747.2255678 31.30083141 746.90229683 34.52116515 746.57705307 37.74134827 C746.23538029 41.13798864 745.90052112 44.5352982 745.56567383 47.93261719 C745.49759427 48.62326389 745.42951471 49.3139106 745.35937214 50.02548599 C745.22015605 51.43804628 745.08097102 52.85060963 744.94181633 54.26317596 C744.72895327 56.421617 744.51535857 58.57998471 744.301651 60.73834229 C742.7726077 76.20163976 741.32487686 91.67242702 739.88367462 107.14411926 C739.43951161 111.91208727 738.99466182 116.6799912 738.54960632 121.44787598 C738.32427958 123.86279618 738.09932424 126.27775108 737.87483215 128.69274902 C737.77393784 129.77544067 737.67304352 130.85813232 737.5690918 131.97363281 C737.43968452 133.36524628 737.43968452 133.36524628 737.30766296 134.78497314 C736.8859919 139.19136571 736.44045546 143.59544544 736 148 C547.24 148 358.48 148 164 148 C171.32561484 223.01774151 171.32561484 223.01774151 179 298 C179 299.32 179 300.64 179 302 C358.19 302 537.38 302 722 302 C718.55780932 347.89587577 718.55780932 347.89587577 716.9140625 365.0859375 C716.72981522 367.0453237 716.54596027 369.00474683 716.36245728 370.96420288 C715.98122609 375.02933785 715.5980369 379.09428016 715.2130127 383.15905762 C714.20291698 393.82650976 713.20703581 404.49529579 712.2109375 415.1640625 C712.1130191 416.21172791 712.01510071 417.25939331 711.91421509 418.33880615 C710.28291279 435.80305712 708.72687225 453.27197445 707.25 470.75 C705.66992852 489.43561518 703.97476846 508.10649421 702.18640137 526.77331543 C700.52148591 544.17392656 698.98054468 561.58277987 697.5 579 C695.92659868 597.50959148 694.27185599 616.0083421 692.5 634.5 C690.59135944 654.42114366 688.82375457 674.35157684 687.12515259 694.29168701 C685.20088339 716.87248603 683.145441 739.43920481 681 762 C674.58396385 764.22375647 668.12135883 766.121879 661.5625 767.875 C659.61058198 768.40199164 657.65876034 768.92934034 655.70703125 769.45703125 C654.26191162 769.84689209 654.26191162 769.84689209 652.78759766 770.24462891 C648.7702086 771.33324353 644.75948962 772.44519601 640.75 773.5625 C639.64857666 773.86909546 639.64857666 773.86909546 638.52490234 774.18188477 C637.06228642 774.58917302 635.59972061 774.99664129 634.13720703 775.40429688 C621.32646127 778.9750325 608.50772576 782.5165023 595.68701172 786.05126953 C586.81275857 788.49849989 577.94123247 790.95527558 569.07275391 793.42333984 C566.14062685 794.23908591 563.20814738 795.05356114 560.27563477 795.86791992 C558.76173484 796.28842061 557.24789989 796.7091553 555.73413086 797.13012695 C552.06102003 798.15138444 548.38709776 799.16945782 544.7109375 800.1796875 C536.0736261 802.55851687 527.46875023 805.0305447 518.875 807.5625 C510.94669302 809.8963605 503.01766679 812.03099962 494.984375 813.97265625 C490.27380046 815.15029989 485.64218898 816.58026314 481 818 C474.34781962 820.03362692 467.69262971 821.89413091 460.93310547 823.53344727 C453.66778336 825.3019916 446.47926673 827.33308732 439.28222656 829.35888672 C435.52390951 830.414657 431.76179211 831.45669367 428 832.5 C426.49998134 832.91659949 424.99998135 833.33326619 423.5 833.75 C414.5 836.25 414.5 836.25 412.24731445 836.87573242 C410.75625694 837.28992406 409.26520867 837.704149 407.77416992 838.1184082 C403.88742741 839.19822429 400.00049733 840.27735859 396.11328125 841.35546875 C395.30955078 841.57847656 394.50582031 841.80148437 393.67773438 842.03125 C392.1517528 842.45464373 390.62571524 842.87783576 389.09960938 843.30078125 C388.40287109 843.49414062 387.70613281 843.6875 386.98828125 843.88671875 C386.31490723 844.07153809 385.6415332 844.25635742 384.94775391 844.44677734 C383.09294052 844.973602 381.25466929 845.55766837 379.41796875 846.14453125 C371.60063026 848.1010994 365.46905424 846.20228775 358 843.875 C349.78705489 841.39235338 341.56551075 839.05178092 333.25 836.9375 C325.29003319 834.90301661 317.42406254 832.665378 309.57080078 830.25415039 C302.15149315 827.99735204 294.66527896 826.04226567 287.15551758 824.11157227 C280.87479571 822.49570753 274.63428246 820.79347014 268.40625 818.984375 C264.50744071 817.85765488 260.5988297 816.76978001 256.6875 815.6875 C249.28797042 813.63811456 241.89315332 811.57226837 234.5 809.5 C227.33548775 807.49217617 220.17004041 805.48799642 213 803.5 C204.74188271 801.21031868 196.49004227 798.89840706 188.23828125 796.5859375 C182.16085043 794.88336857 176.08195048 793.18634942 170 791.5 C157.57019647 788.0529 145.15183581 784.56481087 132.73144531 781.08398438 C117.36946297 776.77858665 117.36946297 776.77858665 102 772.5 C100.59504869 772.10938721 99.19010087 771.71876187 97.78515625 771.328125 C95.13078436 770.59038191 92.47568511 769.85541693 89.81982422 769.12304688 C86.35822356 768.16832536 82.89781919 767.20935445 79.4375 766.25 C78.32310547 765.94384766 77.20871094 765.63769531 76.06054688 765.32226562 C75.02865234 765.03544922 73.99675781 764.74863281 72.93359375 764.453125 C71.5422522 764.06882324 71.5422522 764.06882324 70.12280273 763.67675781 C68 763 68 763 67 762 C66.6702943 759.38048914 66.40081092 756.77717086 66.16796875 754.1484375 C66.09162704 753.32524521 66.01528534 752.50205292 65.93663025 751.65391541 C65.68222404 748.89468491 65.43468898 746.13488581 65.1875 743.375 C65.00849434 741.40908067 64.82929143 739.4431793 64.64990234 737.47729492 C62.23171716 710.85107835 60.00717454 684.20813277 57.80613708 657.56324005 C57.31003497 651.55934299 56.81288012 645.55553305 56.31558228 639.55173492 C56.12550357 637.25608176 55.93567163 634.96040828 55.74584961 632.66473389 C54.31294534 615.34824426 52.84174143 598.03596586 51.28125 580.73046875 C51.21115597 579.9525082 51.14106194 579.17454765 51.06884384 578.37301254 C50.39321809 570.87946075 49.71330838 563.38632167 49.02300644 555.89410686 C48.83287143 553.82657663 48.6440346 551.75893231 48.45568848 549.6912384 C48.22700086 547.18390261 47.99581554 544.6767928 47.76159668 542.16996765 C47.61011169 540.50306633 47.61011169 540.50306633 47.45556641 538.80249023 C47.36707428 537.84495346 47.27858215 536.88741669 47.18740845 535.90086365 C46.9746009 532.60685158 47 529.30087906 47 526 C96.17 526 145.34 526 196 526 C199.45087611 562.80934516 199.45087611 562.80934516 200.60546875 579.5 C200.73538366 581.33758767 200.86562588 583.17515223 200.99617004 585.01269531 C201.32977915 589.72040028 201.65911426 594.42839345 201.98736572 599.13647461 C202.3267378 603.99221739 202.67041903 608.84765529 203.01367188 613.703125 C203.6798537 623.13513306 204.34149323 632.5674532 205 642 C206.08280746 642.26930832 207.16561493 642.53861664 208.28123474 642.81608582 C209.72452546 643.17578112 211.16780811 643.5355088 212.61108398 643.89526367 C213.6775629 644.16037373 213.6775629 644.16037373 214.76558685 644.43083954 C220.89284522 645.95927458 226.9843685 647.59884178 233.0625 649.3125 C234.12267334 649.61027344 235.18284668 649.90804687 236.27514648 650.21484375 C244.34966152 652.49837537 252.38109753 654.90887469 260.40234375 657.37207031 C274.88875238 661.81834457 289.42884321 666.06465666 304.0625 670 C312.50220832 672.27126888 320.86637834 674.74126634 329.21899414 677.31323242 C336.46173693 679.54162633 343.72371759 681.69623933 351 683.8125 C352.49539307 684.24743774 352.49539307 684.24743774 354.02099609 684.69116211 C355.87105015 685.22813674 357.72207197 685.76179261 359.57421875 686.29150391 C361.62328606 686.88997344 363.65747664 687.53903107 365.6875 688.19921875 C372.59893195 689.87002482 378.09990629 688.99893124 384.75 686.8125 C391.04186376 684.85135427 397.34502525 683.11466824 403.75 681.5625 C410.71606478 679.86275325 417.61544789 678.00427448 424.5 676 C431.30228945 674.0205011 438.11767796 672.18029936 445 670.5 C452.63392192 668.6330001 460.18589299 666.55657833 467.73364258 664.36889648 C477.98353204 661.40673375 488.29167323 658.6667655 498.59912109 655.91308594 C502.09586108 654.97426271 505.58926375 654.02380202 509.08203125 653.0703125 C510.24065674 652.75505615 511.39928223 652.4397998 512.59301758 652.11499023 C514.79536044 651.51544165 516.99706787 650.91355182 519.19799805 650.30883789 C520.70873901 649.89879517 520.70873901 649.89879517 522.25 649.48046875 C523.12140625 649.24223389 523.9928125 649.00399902 524.890625 648.75854492 C529.23299954 647.69920465 533.61283675 646.85175949 538 646 C538.10666992 644.69063477 538.21333984 643.38126953 538.32324219 642.03222656 C539.57924561 626.94742194 541.14756642 611.90530628 542.79937744 596.85928345 C543.5843304 589.70774697 544.35918483 582.555113 545.1328125 575.40234375 C545.21160015 574.67430731 545.2903878 573.94627087 545.37156296 573.19617271 C547.26158945 555.71411575 549.03770161 538.22079095 550.78222656 520.72363281 C553.04844169 498.13157067 555.54606892 475.57616591 558 453 C387.39 453 216.78 453 41 453 C39.02 431.22 37.04 409.44 35 387 C33.26042619 368.91310915 33.26042619 368.91310915 31.51879883 350.82641602 C29.73494376 332.19160001 28.05151892 313.54813996 26.38671875 294.90234375 C26.26949274 293.58959032 26.15226673 292.27683689 26.03148842 290.92430305 C24.84013557 277.57905408 23.65296417 264.23343871 22.47165585 250.88729668 C20.0855871 223.9409892 17.64126786 197.0020769 15.0546875 170.07421875 C11.98018707 138.06343943 9.08230221 106.03787997 6.22324967 74.00722826 C5.68077522 67.93189337 5.13557248 61.85680537 4.5898186 55.78176433 C4.0533646 49.80947243 3.51828515 43.83705856 2.98437345 37.86453885 C2.66996671 34.34748058 2.35510147 30.83046515 2.0389595 27.31356239 C1.69272603 23.4609308 1.34938034 19.60804493 1.00634766 15.75512695 C0.90356506 14.61548492 0.80078247 13.4758429 0.69488525 12.30166626 C0.60258636 11.25971603 0.51028748 10.21776581 0.41519165 9.14424133 C0.33449244 8.241592 0.25379322 7.33894266 0.17064857 6.40894032 C0.0196376 4.2772118 0 2.1370706 0 0 Z " fill="#FFFEFE" transform="translate(390,340)"/>
<path d="M0 0 C72.86427406 -0.07860224 72.86427406 -0.07860224 97.45703125 -0.0625 C98.31733452 -0.06196247 99.17763779 -0.06142494 100.06401086 -0.06087112 C152.75138789 -0.02634547 205.43821036 0.20003613 258.125 0.4375 C259.34184321 0.44297317 260.55868643 0.44844633 261.81240368 0.45408535 C336.87649418 0.79238136 411.93912631 1.20945463 487 2 C487.09214505 9.64741539 486.88221619 17.18180995 486.23046875 24.80078125 C486.1095285 26.28053185 486.1095285 26.28053185 485.98614502 27.79017639 C485.72505321 30.96473337 485.45658058 34.13861102 485.1875 37.3125 C485.00315911 39.52749175 484.81899717 41.74249839 484.63500977 43.95751953 C483.5584689 56.83065945 482.40930457 69.69424724 481.1190033 82.54774475 C480.29266849 90.83896088 479.53904996 99.13386368 478.83860779 107.43662453 C478.517201 111.24440523 478.19217962 115.05187803 477.86743164 118.859375 C477.76351325 120.07868194 477.76351325 120.07868194 477.6574955 121.32262135 C476.88904874 130.32501673 476.10220738 139.32579322 475.31452751 148.32652283 C475.06061961 151.22852289 474.80705552 154.1305528 474.55360413 157.03259277 C473.13691141 173.25311507 473.13691141 173.25311507 472.47949219 180.74926758 C470.55960446 202.64622226 468.67120882 224.54361681 466.99487305 246.46076965 C466.17306677 257.15904052 465.18134158 267.83293665 464.11999512 278.51049805 C463.28472415 286.94632998 462.51741324 295.38589514 461.80519104 303.83291054 C461.48386419 307.64166025 461.15885145 311.45009579 460.83398438 315.25854492 C460.7661248 316.05457721 460.69826523 316.85060949 460.6283493 317.67076397 C459.93285353 325.81420951 459.21809627 333.95593185 458.50028992 342.0974369 C458.27975695 344.59896711 458.05956939 347.10052751 457.83947754 349.60209656 C457.24478623 356.36023108 456.65000012 363.11835628 456.05224609 369.8762207 C454.27623353 389.96175273 452.56044622 410.04944162 451.02038574 430.15461731 C450.28745901 439.67756213 449.44329225 449.18292944 448.5 458.6875 C448.36603528 460.04015326 448.23209883 461.39280932 448.09819031 462.74546814 C447.92003532 464.54402 447.92003532 464.54402 447.73828125 466.37890625 C446.85872462 475.34217014 446.09359754 484.31439126 445.3359375 493.28857422 C445.20709062 494.81348158 445.0781814 496.33838368 444.94921875 497.86328125 C444.8463002 499.08032745 444.8463002 499.08032745 444.74130249 500.32196045 C444.03641888 508.62609761 443.30927691 516.92826805 442.58203125 525.23046875 C442.05438374 531.25778593 441.52700087 537.28512625 441 543.3125 C440.93363091 544.0715715 440.86726181 544.83064301 440.79888153 545.61271667 C439.16787382 564.27495492 437.56910542 582.93776872 436.14111328 601.61685181 C435.27978499 612.85952651 434.24278908 624.07831102 433.11987305 635.2980957 C432.15697739 645.04469108 431.36797278 654.79712842 430.625 664.5625 C429.33063932 681.56342974 427.76781399 698.53480382 426.16955566 715.50958252 C424.72093749 730.91856577 423.37236477 746.32849013 422.19824219 761.76074219 C421.31971106 773.28962279 420.27198913 784.78903912 419.12011719 796.29443359 C418.15739689 806.04228756 417.36845162 815.79592981 416.625 825.5625 C415.47323744 840.66219859 414.11388373 855.73643762 412.6875 870.8125 C410.19338467 897.20152174 408.01200981 923.61297225 405.87153912 950.03255939 C405.40829783 955.74971234 404.94154426 961.4665729 404.47297382 967.18329144 C404.12309191 971.46151449 403.78482731 975.74054236 403.45068359 980.02001953 C403.28380208 982.08758719 403.11666703 984.15513441 402.94921875 986.22265625 C402.88136673 987.12858017 402.81351471 988.03450409 402.74360657 988.96788025 C402.54870674 991.32184071 402.29286317 993.65646678 402 996 C401.8445874 997.28898193 401.6891748 998.57796387 401.52905273 999.90600586 C399.80874315 1003.38700272 399.39691811 1003.60699365 395.93115234 1004.87695312 C394.15773847 1005.37566264 392.37491278 1005.84161904 390.5859375 1006.28125 C389.63250961 1006.54098099 388.67908173 1006.80071198 387.69676208 1007.0683136 C384.59617588 1007.90657198 381.48642556 1008.70302143 378.375 1009.5 C376.24355633 1010.06941778 374.11293763 1010.64193251 371.9831543 1011.2175293 C367.82560717 1012.33827711 363.66491753 1013.44563649 359.50048828 1014.54052734 C353.23865637 1016.19255519 347.01997525 1017.96624471 340.8125 1019.8125 C339.9040332 1020.07909424 338.99556641 1020.34568848 338.05957031 1020.62036133 C333.3861969 1021.99207828 328.71809479 1023.38126082 324.05078125 1024.7734375 C321.90892926 1025.41171038 319.76699983 1026.04972344 317.625 1026.6875 C316.53968994 1027.01073242 315.45437988 1027.33396484 314.33618164 1027.66699219 C302.56777582 1031.15552237 290.75887784 1034.50055307 278.95257568 1037.85803223 C269.19199998 1040.6353848 259.43982508 1043.42052149 249.75 1046.4375 C238.25139149 1050.01260232 226.65252619 1053.237036 215.0625 1056.5 C214.04321411 1056.78700775 213.02392822 1057.0740155 211.97375488 1057.36972046 C210.96180054 1057.65465363 209.94984619 1057.93958679 208.90722656 1058.2331543 C206.90819394 1058.79602859 204.90917035 1059.35893495 202.91015625 1059.921875 C201.94206024 1060.19449661 200.97396423 1060.46711823 199.97653198 1060.7480011 C187.12443489 1064.37018271 174.30157761 1068.08526295 161.5234375 1071.9609375 C143.92617128 1077.29232823 126.26213187 1082.3499076 108.56274414 1087.33129883 C106.60041419 1087.88359438 104.63809306 1088.43592126 102.67578125 1088.98828125 C101.73013809 1089.25445755 100.78449493 1089.52063385 99.81019592 1089.7948761 C86.06511476 1093.66755273 72.36891942 1097.70077018 58.68041992 1101.76831055 C46.82738256 1105.28858998 34.96727357 1108.78446947 23.0960083 1112.24279785 C21.37127299 1112.74586762 19.64694445 1113.25033415 17.92303467 1113.75622559 C15.50188158 1114.46635228 13.07928057 1115.17131036 10.65625 1115.875 C9.5612468 1116.19781952 9.5612468 1116.19781952 8.44412231 1116.52716064 C5.52563699 1117.36972952 3.05520426 1118 0 1118 C0 1071.47 0 1024.94 0 977 C8.98425849 973.63090307 8.98425849 973.63090307 12.96875 972.640625 C13.85699463 972.41568359 14.74523926 972.19074219 15.66040039 971.95898438 C16.59746826 971.72501953 17.53453613 971.49105469 18.5 971.25 C26.73526037 969.14981254 34.91232915 966.90925771 43.0625 964.5 C51.56413869 961.98922798 60.08493083 959.58011974 68.64306641 957.26953125 C75.58795164 955.39273653 82.51399931 953.45406767 89.4375 951.5 C97.45664942 949.23948581 105.49257789 947.07166083 113.5625 945 C122.43170183 942.72158909 131.21648835 940.21431393 139.99560547 937.61206055 C147.9211652 935.27732436 155.88872697 933.14768399 163.90039062 931.12890625 C168.73016823 929.90093619 173.49715694 928.55801861 178.25390625 927.0703125 C185.36505004 924.85230665 192.54470364 922.94785121 199.75 921.0625 C208.4888056 918.76041415 217.20302332 916.41216203 225.85351562 913.79541016 C232.69958575 911.74607043 239.61942911 909.98249297 246.54663086 908.22998047 C251.36505135 906.99896279 256.1255545 905.66837011 260.86816406 904.17016602 C268.46313525 901.81953233 276.12571591 899.77347534 283.8125 897.75 C285.19863052 897.38304967 286.58469857 897.01586331 287.97070312 896.6484375 C291.31308993 895.76291607 294.65629836 894.88054548 298 894 C299.23243054 880.70863457 300.46132473 867.41694396 301.6875 854.125 C301.77897434 853.13352211 301.87044868 852.14204422 301.96469498 851.12052155 C304.27748084 826.04457837 306.55894494 800.96732543 308.6875 775.875 C310.29016484 756.9822225 312.00515597 738.10362664 313.81332397 719.22943115 C315.47833407 701.82790434 317.01937735 684.4181374 318.5 667 C320.16591439 647.40207899 321.93639889 627.8176435 323.8125 608.23876953 C325.59420409 589.61717791 327.22671916 570.98526643 328.81048584 552.34588623 C330.41480578 533.48841729 332.13703935 514.64485197 333.9432373 495.80569458 C335.45507416 480.03042141 336.86979854 464.25154503 338.10009766 448.45166016 C338.15487274 447.76287277 338.20964783 447.07408539 338.26608276 446.36442566 C338.41022468 444.54907046 338.55049744 442.73340916 338.69042969 440.91772461 C339 438 339 438 340 434 C160.81 434 -18.38 434 -203 434 C-204.19928945 425.60497387 -205.36093038 417.28623568 -206.20507812 408.86157227 C-206.30944687 407.84308701 -206.41381561 406.82460175 -206.52134705 405.7752533 C-206.86075845 402.45591392 -207.19611025 399.13617941 -207.53125 395.81640625 C-207.77002311 393.47010803 -208.009 391.12383054 -208.24816895 388.77757263 C-208.74746458 383.87345945 -209.24483775 378.96915648 -209.74072266 374.06469727 C-210.36961835 367.84548263 -211.00246926 361.62667872 -211.63669586 355.40800571 C-212.13050724 350.56303723 -212.6225785 345.71789322 -213.11412048 340.87269402 C-213.34648724 338.58343127 -213.57927019 336.29421073 -213.81251526 334.00503731 C-214.9834559 322.50065486 -216.12189903 310.99369502 -217.15820312 299.47631836 C-217.24388298 298.55238313 -217.32956284 297.6284479 -217.41783905 296.67651463 C-217.49494362 295.79918139 -217.57204819 294.92184816 -217.65148926 294.01792908 C-217.71916756 293.2630165 -217.78684586 292.50810392 -217.85657501 291.73031521 C-218.06170754 287.82530203 -218 283.91039733 -218 280 C-29.24 280 159.52 280 354 280 C354 276.7 354 273.4 354 270 C354.11227141 268.05240729 354.25351821 266.10598413 354.43969727 264.1640625 C358.66162118 220.11263671 362.83247851 176.05665573 367 132 C119.83 132 -127.34 132 -382 132 C-382 131.67 -382 131.34 -382 131 C-255.94 131 -129.88 131 0 131 C0 87.77 0 44.54 0 0 Z " fill="#FF6520" transform="translate(772,208)"/>
<path d="M0 0 C58.08 0 116.16 0 176 0 C174.85356328 22.92873432 174.85356328 22.92873432 173.8359375 31.55859375 C173.72327042 32.56286911 173.61060333 33.56714447 173.49452209 34.60185242 C173.25240223 36.7575741 173.00775533 38.9130133 172.76071167 41.06817627 C172.07469564 47.06076159 171.41057327 53.0557755 170.74609375 59.05078125 C170.60460403 60.32495911 170.46311432 61.59913696 170.31733704 62.91192627 C168.6634596 77.89933123 167.1639443 92.90212258 165.66014099 107.90518951 C163.5644402 128.80007754 161.43655606 149.69014242 159.125 170.5625 C159.02154266 171.504422 158.91808533 172.44634399 158.81149292 173.41680908 C158.52603831 176.00871965 158.23658789 178.60014413 157.9453125 181.19140625 C157.82237068 182.30798866 157.82237068 182.30798866 157.69694519 183.4471283 C157.48533788 185.30056708 157.24451472 187.15061483 157 189 C156.91129639 189.78503906 156.82259277 190.57007813 156.73120117 191.37890625 C156 193 156 193 154.00073242 194.01733398 C153.12779541 194.25782471 152.2548584 194.49831543 151.35546875 194.74609375 C149.89004639 195.16205811 149.89004639 195.16205811 148.39501953 195.58642578 C147.33653809 195.86728027 146.27805664 196.14813477 145.1875 196.4375 C143.56110596 196.88971924 143.56110596 196.88971924 141.90185547 197.35107422 C133.5399056 199.65364012 125.13141748 201.76791382 116.70703125 203.828125 C108.11486134 205.94322878 99.61588859 208.40736392 91.10400391 210.82128906 C79.44257163 214.12569998 67.78453445 217.35801555 56.00927734 220.2331543 C51.03872448 221.45757347 46.14702348 222.82059305 41.25 224.3125 C27.61002868 228.27546464 13.77991398 231.5550215 0 235 C0 157.45 0 79.9 0 0 Z " fill="#FF6520" transform="translate(772,793)"/>
<path d="M0 0 C71.94 0 143.88 0 218 0 C218 50.82 218 101.64 218 154 C151.01 154 84.02 154 15 154 C13.80071055 145.60497387 12.63906962 137.28623568 11.79492188 128.86157227 C11.69055313 127.84308701 11.58618439 126.82460175 11.47865295 125.7752533 C11.13924155 122.45591392 10.80388975 119.13617941 10.46875 115.81640625 C10.22997689 113.47010803 9.991 111.12383054 9.75183105 108.77757263 C9.25253542 103.87345945 8.75516225 98.96915648 8.25927734 94.06469727 C7.63038165 87.84548263 6.99753074 81.62667872 6.36330414 75.40800571 C5.86949276 70.56303723 5.3774215 65.71789322 4.88587952 60.87269402 C4.65351276 58.58343127 4.42072981 56.29421073 4.18748474 54.00503731 C3.0165441 42.50065486 1.87810097 30.99369502 0.84179688 19.47631836 C0.75611702 18.55238313 0.67043716 17.6284479 0.58216095 16.67651463 C0.50505638 15.79918139 0.42795181 14.92184816 0.34851074 14.01792908 C0.24699329 12.88556021 0.24699329 12.88556021 0.14342499 11.73031521 C-0.06170754 7.82530203 0 3.91039733 0 0 Z " fill="#FF4E1D" transform="translate(554,488)"/>
</svg>
