<?xml version="1.0" encoding="UTF-8"?>
<svg version="1.1" xmlns="http://www.w3.org/2000/svg" width="3840" height="2160">
<path d="M0 0 C38.09953388 -0.03250247 76.19907077 -0.05135377 114.29861641 -0.06185675 C116.61562729 -0.06249741 118.93263817 -0.06315664 121.24964905 -0.06381607 C221.35718387 -0.09181454 321.46405098 0.04039268 577.01962808 0.6354088 C580.58784858 0.64424709 584.15606911 0.6530716 587.72428966 0.66189206 C594.71508846 0.67917636 601.70588716 0.69649767 608.69668579 0.71385193 C610.39687934 0.71807215 610.39687934 0.71807215 612.13142024 0.72237764 C625.33970635 0.75520016 638.54799066 0.78863241 651.75627255 0.82311331 C659.93831554 0.8444698 668.12035943 0.86545325 676.30240405 0.88617606 C680.9568321 0.8979904 685.61125938 0.91000347 690.26568532 0.92262352 C710.09782604 0.97630151 729.92974476 1.00505688 749.76196289 1 C771.80720734 0.99438849 793.85217358 1.03063378 815.89734507 1.08454299 C821.14082143 1.09723342 826.38429936 1.10924826 831.6277771 1.12135315 C840.65976037 1.14228605 849.69174265 1.16360522 858.72372437 1.18519592 C871.83365062 1.21652408 884.94357853 1.24710512 898.05350697 1.27750319 C919.40839359 1.32702803 940.76327922 1.3769629 962.11816406 1.42724609 C964.02339551 1.43173202 964.02339551 1.43173202 965.96711648 1.43630856 C976.26710394 1.46056332 986.56709136 1.48483837 996.86707878 1.50911427 C1005.87199781 1.53033698 1014.87691686 1.55155157 1023.88183594 1.57275391 C1025.15038992 1.5757409 1026.4189439 1.5787279 1027.72593892 1.58180541 C1049.01712301 1.63192482 1070.30830813 1.68159903 1091.59949398 1.73096704 C1104.64792381 1.76124347 1117.69635263 1.79190354 1130.7447803 1.82309544 C1139.70683131 1.84449321 1148.66888323 1.86548034 1157.63093591 1.88616979 C1162.76519229 1.89803646 1167.8994481 1.91006929 1173.03370285 1.92262459 C1195.03601264 1.97630548 1217.03810074 2.00485729 1239.04047836 1.99922144 C1259.98798231 1.99436075 1280.93525326 2.03329719 1301.88268602 2.08454299 C1307.1241365 2.09723364 1312.36558854 2.10924839 1317.60704041 2.12135315 C1326.63574748 2.14228626 1335.66445358 2.16360551 1344.6931591 2.18519592 C1357.79943689 2.2165261 1370.90571635 2.24710658 1384.01199634 2.27750319 C1405.36240928 2.3270289 1426.71282125 2.37696302 1448.06323242 2.42724609 C1449.33312441 2.43023671 1450.60301639 2.43322732 1451.91138995 2.43630856 C1462.20865262 2.46056203 1472.50591523 2.48483599 1482.80317783 2.50911427 C1491.8042507 2.53033626 1500.80532358 2.55155118 1509.80639648 2.57275391 C1511.07438506 2.5757409 1512.34237364 2.5787279 1513.64878612 2.58180541 C1534.93432496 2.63193368 1556.21986485 2.68160744 1577.50540549 2.73096704 C1590.54922601 2.76123592 1603.5930455 2.79189489 1616.63686384 2.82309544 C1625.59705319 2.84450156 1634.55724347 2.8654876 1643.51743453 2.88616979 C1648.64978956 2.89803061 1653.78214401 2.91006048 1658.91449738 2.92262459 C1664.54378122 2.93637848 1670.17306624 2.9494925 1675.80235291 2.96203613 C1676.70119602 2.96406131 1677.60003914 2.96608648 1678.52611993 2.96817303 C1689.35240662 2.99183927 1700.17861752 3.00229477 1711.0049305 2.99790955 C1712.09970036 2.99753318 1713.19447022 2.99715681 1714.32241492 2.99676904 C1719.60163858 2.99472994 1724.88085528 2.99131278 1730.16007608 2.98546648 C1747.25104685 2.97179946 1764.33509288 3.16822028 1781.42321777 3.46356201 C1785.80790897 3.53824562 1790.19270282 3.60667778 1794.5774765 3.67631531 C1801.05172603 3.77975938 1807.52586098 3.88988212 1814 4 C1810.20901857 50.07429813 1806.24504887 96.13306904 1802.25151933 142.19018603 C1801.30862722 153.06498041 1800.36691072 163.93987654 1799.42518794 174.81477224 C1797.54431245 196.53441743 1795.66228837 218.25396297 1793.77980619 239.97346895 C1792.08695962 259.50509181 1790.39457758 279.03675487 1788.70257568 298.56845093 C1788.58670849 299.90596155 1788.47084119 301.24347217 1788.35497379 302.58098278 C1788.12183579 305.2722022 1787.88869786 307.96342163 1787.65556008 310.65464107 C1787.59757072 311.32403938 1787.53958136 311.99343769 1787.47983474 312.68312079 C1787.3623424 314.03939052 1787.24485018 315.39566026 1787.12735807 316.75193002 C1780.70467589 390.89209024 1774.27886342 465.03197911 1730.47257167 970.29684713 C1729.67532591 979.49086866 1728.87808156 988.68489032 1728.08083725 997.87891197 C1728.00184654 998.78985265 1727.92285583 999.70079333 1727.84147147 1000.63933827 C1726.08482928 1020.8973783 1724.32819097 1041.15541866 1722.57155985 1061.41345965 C1722.41189195 1063.25480171 1722.25222402 1065.09614377 1722.09255606 1066.93748582 C1714.15807744 1158.44044059 1706.22423699 1249.94345063 1680.34809366 1548.47537609 C1678.25890709 1572.58067209 1676.16961687 1596.6859591 1674.08025189 1620.79123964 C1671.58547964 1649.57375952 1669.09084311 1678.35629115 1666.59643418 1707.13884252 C1666.3451056 1710.0388743 1666.09377658 1712.93890604 1665.84244728 1715.83893776 C1665.78080162 1716.55025408 1665.71915596 1717.26157039 1665.65564225 1717.99444175 C1664.68108224 1729.23965045 1663.70639645 1740.48484825 1662.73166064 1751.73004171 C1661.77590127 1762.75634925 1660.82029048 1773.78266966 1659.86482714 1784.80900285 C1659.35489343 1790.69374838 1658.8448975 1796.57848851 1658.33472753 1802.46321356 C1657.87133824 1807.80834882 1657.40813197 1813.1534999 1656.94507215 1818.4986637 C1656.77873019 1820.41840159 1656.61232186 1822.33813372 1656.44583877 1824.25785937 C1656.29191263 1826.03286807 1656.13810276 1827.80788686 1655.98442382 1829.58291699 C1655.84291396 1831.21617709 1655.70099722 1832.84940201 1655.55861696 1834.48258646 C1655.0873049 1839.90893959 1654.65401501 1845.33750047 1654.25697011 1850.76985693 C1654 1853 1654 1853 1653 1856 C1650.59222428 1857.00490063 1648.30547917 1857.77382757 1645.80859375 1858.5 C1644.98580429 1858.74935303 1644.16301483 1858.99870605 1643.31529236 1859.25561523 C1640.21491964 1860.18708152 1637.10805244 1861.09448664 1634 1862 C1632.70235946 1862.38018865 1631.40477497 1862.76056869 1630.10723877 1863.14111328 C1619.67088052 1866.19863024 1609.2218206 1869.21172585 1598.77116776 1872.21994781 C1594.15868018 1873.54826909 1589.54701487 1874.87943874 1584.93530273 1876.21044922 C1579.22943791 1877.85709787 1573.52352014 1879.50356146 1567.817276 1881.14889526 C1550.94780349 1886.01308579 1534.08270888 1890.89231889 1517.21899414 1895.77642822 C1512.53735585 1897.13232856 1507.85560648 1898.48784509 1503.17382812 1899.84326172 C1502.39859047 1900.06770021 1501.62335281 1900.29213871 1500.82462311 1900.52337837 C1499.25891143 1900.97666524 1497.69319945 1901.4299511 1496.12748718 1901.88323593 C1493.7853832 1902.56130339 1491.44328828 1903.23940211 1489.10119629 1903.91751099 C1478.79812421 1906.90055587 1468.49486326 1909.88294773 1458.19148445 1912.86493301 C1426.95929471 1921.9041136 1395.72803133 1930.9464626 1364.5 1940 C1340.48069179 1946.96360596 1316.4598232 1953.92180178 1292.4375 1960.875 C1291.64878887 1961.10329247 1290.86007774 1961.33158493 1290.04746628 1961.56679535 C1277.22790665 1965.27740773 1264.40824777 1968.98767718 1251.58857727 1972.69790649 C1239.57983802 1976.17344254 1227.57113404 1979.64910043 1215.5625 1983.125 C1214.37858736 1983.4676804 1214.37858736 1983.4676804 1213.17075729 1983.81728363 C1189.9456937 1990.5397617 1166.72216051 1997.26750072 1143.5 2004 C1120.27595455 2010.73304576 1097.05051076 2017.46124206 1073.8235817 2024.1843338 C1071.44409791 2024.87309019 1069.06462265 2025.56187601 1066.68515015 2026.25067139 C1051.24502634 2030.72017063 1035.80476209 2035.18918295 1020.3635788 2039.65502071 C1016.14181401 2040.8760283 1011.9200925 2042.09718498 1007.69848633 2043.31874084 C1006.02913487 2043.8017706 1004.35978266 2044.28479775 1002.69042969 2044.76782227 C1001.86906776 2045.00548593 1001.04770584 2045.24314959 1000.20145416 2045.48801517 C995.32369214 2046.8991885 990.44543596 2048.30863783 985.56678009 2049.71671772 C971.48299633 2053.78207376 957.40337347 2057.85453095 943.3671875 2062.08203125 C941.41172919 2062.66789515 939.45624549 2063.25367435 937.50073242 2063.83935547 C934.10257453 2064.85772352 930.71054155 2065.89353547 927.3215332 2066.94189453 C925.87470619 2067.37727438 924.42769882 2067.81205555 922.98046875 2068.24609375 C921.78317139 2068.61404053 920.58587402 2068.9819873 919.35229492 2069.36108398 C913.64895913 2070.44808637 908.35006492 2068.93782802 902.83374023 2067.3996582 C901.04509048 2066.90429565 901.04509048 2066.90429565 899.2203064 2066.39892578 C897.91637325 2066.03298067 896.61247003 2065.66692892 895.30859375 2065.30078125 C893.92064067 2064.91444169 892.53258648 2064.52846526 891.1444397 2064.14282227 C887.3681145 2063.0924066 883.59340178 2062.03630142 879.8189888 2060.97903824 C876.6028391 2060.0788926 873.38578189 2059.18201409 870.16873455 2058.28508282 C843.2170475 2050.77009911 816.28662725 2043.17920029 789.36083984 2035.57202148 C786.06348107 2034.64044629 782.76612034 2033.70887802 779.46875 2032.77734375 C778.64518635 2032.54467741 777.8216227 2032.31201107 776.97310257 2032.07229424 C756.9580143 2026.41845597 736.93420928 2020.7957028 716.90997314 2015.174366 C708.42947457 2012.79365094 699.94907502 2010.4125832 691.46875 2008.03125 C690.55177338 2007.7737604 689.63479675 2007.51627079 688.69003296 2007.25097847 C671.19472149 2002.33796833 653.70317885 1997.41164418 636.21278763 1992.48115158 C610.52220738 1985.23915027 584.82572494 1978.01841646 559.125 1970.8125 C557.41141758 1970.33204166 555.69783522 1969.85158308 553.98425293 1969.37112427 C552.70862771 1969.01346277 552.70862771 1969.01346277 551.40723228 1968.64857578 C547.06966071 1967.43240012 542.73209298 1966.21621076 538.39453125 1965 C537.52672909 1964.75667875 536.65892693 1964.51335751 535.76482773 1964.26266289 C514.44580023 1958.2849197 493.12879638 1952.29997421 471.8125 1946.3125 C470.87448799 1946.04902897 469.93647598 1945.78555794 468.97003937 1945.51410294 C442.76496052 1938.15341082 416.56297016 1930.78183928 390.36437607 1923.39810181 C355.39556516 1913.54266136 320.41774433 1903.71934915 285.43951416 1893.8973999 C272.46154324 1890.25313047 259.48384484 1886.6078919 246.50632858 1882.96200371 C243.44551686 1882.10210333 240.38470065 1881.24221894 237.32388306 1880.38233948 C228.56771746 1877.92245328 219.81155843 1875.46254375 211.05544472 1873.00247288 C208.35856348 1872.2448005 205.66166005 1871.48720715 202.9647522 1870.72962952 C199.5679988 1869.77545698 196.17133952 1868.82095052 192.77474976 1867.86619568 C185.52005545 1865.82743913 178.2643491 1863.79261276 171.00390625 1861.77441406 C169.81953979 1861.44470612 168.63517334 1861.11499817 167.41491699 1860.77529907 C165.27715081 1860.18070903 163.1389211 1859.58778174 161.00012207 1858.99691772 C160.08935913 1858.74350616 159.17859619 1858.4900946 158.24023438 1858.22900391 C157.46111694 1858.01337799 156.68199951 1857.79775208 155.87927246 1857.57559204 C154 1857 154 1857 152 1856 C151.53589094 1853.40816196 151.53589094 1853.40816196 151.23335838 1849.91962034 C151.11690078 1848.62859072 151.00044318 1847.3375611 150.88045657 1846.00740938 C150.76205431 1844.58695682 150.64389895 1843.16648367 150.52597046 1841.74599171 C150.39766408 1840.28146777 150.2685866 1838.8170112 150.13876665 1837.35262065 C149.80947657 1833.60973125 149.4917231 1829.8659679 149.17816776 1826.12173075 C148.9141573 1822.97773254 148.64324564 1819.83432966 148.37343216 1816.69082487 C147.76035372 1809.48328099 147.17166781 1802.27382363 146.58447266 1795.06413269 C146.35785466 1792.29665326 146.13066468 1789.52922084 145.90350664 1786.76178569 C145.41371819 1780.7911327 144.92529705 1774.82036917 144.43783069 1768.84952617 C143.70792698 1759.90922791 142.97579075 1750.96911338 142.2432583 1742.02903018 C140.99379508 1726.77936801 139.74610485 1711.52956125 138.49940872 1696.27967262 C137.23743604 1680.84300396 135.97463082 1665.40640372 134.71082687 1649.96988487 C134.63073919 1648.99166112 134.55065151 1648.01343736 134.46813693 1647.00557046 C134.05966592 1642.01638294 133.65118177 1637.02719649 133.2426932 1632.03801041 C130.29001649 1595.97434075 127.33918304 1559.91052046 124.38934326 1523.84661865 C121.45990046 1488.03213621 118.52968345 1452.21771725 115.59844971 1416.40338135 C115.41377756 1414.14701411 115.22910542 1411.89064688 115.04443328 1409.63427964 C114.30209087 1400.5641872 113.55974203 1391.49409528 112.81738576 1382.42400397 C110.74218043 1357.06917824 108.6671088 1331.71434156 106.59213257 1306.35949707 C106.49765434 1305.20503578 106.40317612 1304.05057449 106.30583492 1302.86112952 C101.11793174 1239.46820327 95.93190132 1176.07512381 90.7458766 1112.68204387 C89.75234087 1100.5372355 88.75880149 1088.39242743 87.76525879 1076.24761963 C87.61765349 1074.44332898 87.61765349 1074.44332898 87.46706627 1072.60258801 C83.03039105 1018.36981225 78.59292037 964.13710159 74.15527195 909.90440546 C72.50043076 889.68051747 70.84560198 869.45662846 69.19077415 849.23273938 C68.99704063 846.86509426 68.80330705 844.49744914 68.60957341 842.12980402 C59.41234718 729.72923804 50.21605404 617.3285957 21.02827842 260.49138194 C20.47021347 253.66628941 19.91214356 246.84119729 19.35407088 240.01610539 C19.21751278 238.3460327 19.08095498 236.67595998 18.94439747 235.00588723 C16.90185383 210.02600055 14.85854559 185.04617652 12.81460379 160.06640421 C11.10006788 139.11237912 9.38626977 118.15829384 7.67352021 97.20412266 C6.73333934 85.70201498 5.79252842 74.1999593 4.85070661 62.69798586 C4.24722646 55.32722485 3.6445904 47.95639519 3.04272041 40.58550254 C2.70883975 36.49686355 2.3745829 32.40825633 2.03924036 28.31973696 C1.74105851 24.68423499 1.44396174 21.04864617 1.14779873 17.4129792 C0.99191805 15.50299319 0.83483565 13.59310537 0.67771184 11.68322122 C0.58706508 10.5676335 0.49641831 9.45204577 0.40302467 8.30265236 C0.32448679 7.34239509 0.2459489 6.38213783 0.16503108 5.39278185 C0.04128627 3.59860868 0 1.79843547 0 0 Z " fill="#E9CA31" transform="translate(1012,45)"/>
<path d="M0 0 C128.19090726 0 256.34099509 0.05511815 384.5234375 0.78125 C411.51548085 0.9305384 438.50448601 1.05578252 465.49671936 1.01660156 C501.85399356 0.96386932 538.20944603 1.01230242 574.56627822 1.20192909 C580.1789718 1.23090771 585.79167302 1.25833774 591.40437317 1.28601074 C614.42065177 1.40012249 637.43689022 1.52194635 660.453125 1.64453125 C661.54452652 1.6503336 662.63592803 1.65613596 663.76040232 1.66211414 C674.21073277 1.71767479 684.66106181 1.77340677 695.1113795 1.83132172 C698.91699353 1.8523473 702.72260952 1.87300339 706.5282259 1.89359856 C708.26527472 1.90309386 710.00232263 1.91275983 711.73936939 1.92262459 C723.15970997 1.98744294 734.57947676 2.01124859 746 2 C746.16386654 11.34228584 745.56560849 20.52961117 744.71484375 29.82421875 C744.57661508 31.37844634 744.43888324 32.93271818 744.30160522 34.48703003 C744.00683456 37.81382172 743.70888076 41.14030648 743.40835571 44.46658325 C742.92922693 49.77078753 742.45745365 55.07562999 741.98706055 60.38061523 C741.49421237 65.93618374 741.00111099 71.49172803 740.50575256 77.04707336 C738.81447828 96.02119085 737.17101259 114.99935604 735.53530121 133.97833252 C735.23820954 137.4241605 734.94062437 140.86994578 734.6430378 144.31573105 C732.94012027 164.03514421 731.24914834 183.75553343 729.57577515 203.47747803 C727.28750956 230.44266553 724.93904546 257.40251985 722.5546875 284.359375 C722.49173744 285.07113766 722.42878738 285.78290031 722.36392975 286.51623154 C722.17101166 288.69750779 721.97808481 290.87878327 721.78515625 293.06005859 C721.58922864 295.27526559 721.39330394 297.49047284 721.1973877 299.70568085 C721.06547914 301.19714179 720.93356178 302.68860195 720.80163574 304.18006134 C719.21329238 322.13843326 717.63811024 340.0976018 716.125 358.0625 C714.289354 379.85007633 712.36823901 401.63002119 710.44876862 423.41033554 C707.6923265 454.68820617 704.95083326 485.96727407 702.25 517.25 C702.17674248 518.09843349 702.10348495 518.94686699 702.02800751 519.82101059 C700.1961778 541.03962558 698.3762288 562.25921992 696.57550049 583.48049927 C694.28734019 610.44468089 691.93895637 637.4035271 689.5546875 664.359375 C689.49173744 665.07113766 689.42878738 665.78290031 689.36392975 666.51623154 C689.17101166 668.69750779 688.97808481 670.87878327 688.78515625 673.06005859 C688.58922864 675.27526559 688.39330394 677.49047284 688.1973877 679.70568085 C688.06547914 681.19714179 687.93356178 682.68860195 687.80163574 684.18006134 C686.21329238 702.13843326 684.63811024 720.0976018 683.125 738.0625 C681.289354 759.85007633 679.36823901 781.63002119 677.44876862 803.41033554 C674.6923265 834.68820617 671.95083326 865.96727407 669.25 897.25 C669.17674248 898.09843349 669.10348495 898.94686699 669.02800751 899.82101059 C667.1961778 921.03962558 665.3762288 942.25921992 663.57550049 963.48049927 C661.28734019 990.44468089 658.93895637 1017.4035271 656.5546875 1044.359375 C656.49173744 1045.07113766 656.42878738 1045.78290031 656.36392975 1046.51623154 C656.17101166 1048.69750779 655.97808481 1050.87878327 655.78515625 1053.06005859 C655.58922864 1055.27526559 655.39330394 1057.49047284 655.1973877 1059.70568085 C655.06547914 1061.19714179 654.93356178 1062.68860195 654.80163574 1064.18006134 C653.21329238 1082.13843326 651.63811024 1100.0976018 650.125 1118.0625 C648.289354 1139.85007633 646.36823901 1161.63002119 644.44876862 1183.41033554 C641.6923265 1214.68820617 638.95083326 1245.96727407 636.25 1277.25 C636.17674248 1278.09843349 636.10348495 1278.94686699 636.02800751 1279.82101059 C634.1961778 1301.03962558 632.3762288 1322.25921992 630.57550049 1343.48049927 C628.28734018 1370.44468097 625.93894016 1397.40352561 623.5546875 1424.359375 C623.42686454 1425.80467732 623.29904167 1427.24997965 623.17121887 1428.69528198 C623.04196261 1430.15671802 622.9127054 1431.61815397 622.78344727 1433.07958984 C622.71896802 1433.80861952 622.65448877 1434.53764919 622.58805561 1435.28877068 C622.49106766 1436.38535342 622.49106766 1436.38535342 622.39212036 1437.50408936 C622.32739155 1438.23595207 622.26266273 1438.96781479 622.19597244 1439.72185516 C622.06558316 1441.19602335 621.93517907 1442.67019022 621.80475998 1444.14435577 C619.81983377 1466.58174228 617.87001535 1489.02174538 615.97854614 1511.46723938 C615.7111538 1514.63400401 615.44123296 1517.80055095 615.17132568 1520.96710205 C615.01319408 1522.84344305 614.86106003 1524.72028693 614.70947266 1526.59716797 C614.62616699 1527.59506348 614.54286133 1528.59295898 614.45703125 1529.62109375 C614.35805542 1530.84783813 614.35805542 1530.84783813 614.25708008 1532.09936523 C614 1534 614 1534 613 1536 C610.8263855 1536.84983826 610.8263855 1536.84983826 607.90576172 1537.70483398 C606.80907166 1538.02993958 605.71238159 1538.35504517 604.5824585 1538.69000244 C603.37704407 1539.03851257 602.17162964 1539.38702271 600.9296875 1539.74609375 C599.68205627 1540.11321472 598.43442505 1540.48033569 597.14898682 1540.85858154 C593.76234681 1541.85464805 590.37286358 1542.84069192 586.98270416 1543.82470322 C584.17647679 1544.64058959 581.37199576 1545.46238653 578.5675106 1546.28423786 C561.00894752 1551.42893418 543.43097019 1556.5078279 525.79638672 1561.38647461 C516.81313833 1563.87780752 507.89155721 1566.53890058 498.97840881 1569.27044678 C488.04134222 1572.61446454 477.05454492 1575.77987013 466.0625 1578.9375 C463.82915236 1579.58062299 461.59583609 1580.22385488 459.36254883 1580.8671875 C447.23881937 1584.35716957 435.10955452 1587.82752203 422.9765625 1591.28515625 C421.73609665 1591.63883774 420.4956308 1591.99251923 419.21757507 1592.35691833 C413.24427513 1594.05983633 407.27037144 1595.76056693 401.29516602 1597.45678711 C390.00176401 1600.66894369 378.74116067 1603.96343623 367.51626587 1607.40748596 C356.73436056 1610.70912176 345.9000097 1613.8242627 335.0625 1616.9375 C332.82915236 1617.58062299 330.59583609 1618.22385488 328.36254883 1618.8671875 C316.23881937 1622.35716957 304.10955452 1625.82752203 291.9765625 1629.28515625 C290.73609665 1629.63883774 289.4956308 1629.99251923 288.21757507 1630.35691833 C282.24427513 1632.05983633 276.27037144 1633.76056693 270.29516602 1635.45678711 C258.98198921 1638.67458381 247.70189889 1641.97550597 236.45735168 1645.4256134 C226.99840769 1648.32212312 217.49823132 1651.0677623 207.98916626 1653.79446411 C202.37840138 1655.40343871 196.76938374 1657.01848801 191.16015625 1658.6328125 C189.95834213 1658.97854813 188.75652802 1659.32428375 187.51829529 1659.68049622 C178.00735587 1662.41807508 168.50091186 1665.17094371 158.99609375 1667.9296875 C158.27323559 1668.13947613 157.55037743 1668.34926476 156.80561447 1668.56541061 C153.1225346 1669.6343388 149.43949383 1670.70340167 145.75646973 1671.77252197 C109.1451004 1682.4000109 109.1451004 1682.4000109 92.51953125 1687.140625 C91.40490005 1687.45845444 90.29026886 1687.77628387 89.14186096 1688.10374451 C84.07394343 1689.54775214 79.00510162 1690.9884079 73.93481445 1692.42407227 C63.69017099 1695.3312701 53.48893342 1698.35527318 43.30758667 1701.47703552 C34.82300011 1704.07175449 26.29955927 1706.50474281 17.75 1708.875 C15.65264092 1709.45889082 13.55550078 1710.04355581 11.45855713 1710.62893677 C9.61046367 1711.1445117 7.76179536 1711.65802483 5.91308594 1712.17138672 C3.9286767 1712.73584238 1.95725348 1713.34758217 0 1714 C0 1148.38 0 582.76 0 0 Z " fill="#FFDE25" transform="translate(1926,222)"/>
<path d="M0 0 C180.18 0 360.36 0 546 0 C547.41540434 2.83080868 546.72658084 4.60777399 546.20048523 7.72116089 C545.99754349 8.9413945 545.79460175 10.16162811 545.58551025 11.4188385 C545.35229031 12.78038511 545.11894872 14.1419109 544.88549805 15.50341797 C544.64515744 16.93334225 544.40538984 18.36336294 544.16615295 19.79347229 C543.51008753 23.70527759 542.84597465 27.61568014 542.1805532 31.52590322 C541.47581045 35.67574328 540.77856726 39.82684306 540.08052063 43.97781372 C538.74466814 51.91469535 537.40227633 59.85045642 536.05749017 67.78582871 C534.42307709 77.43185948 532.79628412 87.07917162 531.16992188 96.7265625 C530.58958783 100.16873154 530.00919602 103.61089083 529.42874146 107.05303955 C529.28576445 107.90092143 529.14278744 108.74880332 528.9954778 109.62237859 C527.99020873 115.58257151 526.98290204 121.542418 525.974823 127.50213623 C523.27621882 143.46023851 520.59064458 159.42026236 517.94775391 175.38769531 C517.70922662 176.82735383 517.47067646 178.26700855 517.23210239 179.70665932 C516.13263016 186.34342543 515.03684133 192.98076277 513.94694519 199.61911011 C513.56606296 201.92333842 513.1850733 204.22754899 512.80395508 206.53173828 C512.5488425 208.09814749 512.5488425 208.09814749 512.28857613 209.69620132 C512.13206015 210.63878674 511.97554417 211.58137215 511.81428528 212.55252075 C511.68014127 213.36928347 511.54599726 214.18604618 511.40778828 215.02755928 C511 217 511 217 510 219 C410.67 219 311.34 219 209 219 C209.33 337.14 209.66 455.28 210 577 C308.35632596 576.96037631 308.35632596 576.96037631 406.71264648 576.90991211 C425.68762207 576.90539551 425.68762207 576.90539551 434.55604553 576.90455627 C440.78183872 576.90362043 447.00762303 576.89993836 453.2334137 576.89442444 C460.40439217 576.88808273 467.57536207 576.88515849 474.74634338 576.88655505 C478.41873683 576.88716044 482.09111108 576.88616562 485.76350105 576.88078487 C489.6851912 576.87507343 493.60685531 576.87699127 497.52854919 576.87974548 C499.26877649 576.87537649 499.26877649 576.87537649 501.04415989 576.87091923 C502.08801538 576.8729101 503.13187088 576.87490097 504.20735836 576.87695217 C505.56922532 576.87638259 505.56922532 576.87638259 506.95860475 576.8758015 C509 577 509 577 510 578 C510.78692363 590.11393958 509.50380218 602.51832035 508.87695312 614.6171875 C508.75451023 617.02765771 508.63236044 619.43814283 508.51047707 621.8486414 C508.24529212 627.08033285 507.97808329 632.31191684 507.70907974 637.54341316 C507.30839834 645.33620143 506.91163341 653.12918575 506.51568456 660.92221574 C505.84715478 674.07838817 505.17570313 687.23440991 504.50262451 700.39035034 C503.53438495 719.31631596 502.57028466 738.24249104 501.60727796 757.16872357 C501.26201695 763.95414818 500.91669631 770.73956975 500.57138984 777.52499204 C500.44025918 780.10181422 500.30913628 782.67863679 500.17801344 785.25545937 C499.59856219 796.64233861 499.01859018 808.02919126 498.43838157 819.41603193 C495.86241958 869.97227995 493.30205302 920.52930193 490.75284684 971.0869059 C490.61728527 973.77540484 490.48171296 976.46390323 490.34613705 979.15240145 C488.85164519 1008.78859442 487.35805052 1038.4248326 485.86495972 1068.06109619 C484.76950989 1089.80451207 483.67372341 1111.54791093 482.57688797 1133.29125696 C482.49976396 1134.82015311 482.42264293 1136.3490494 482.34552491 1137.87794584 C479.60277176 1192.25398718 476.82354659 1246.62808722 474 1301 C470.20590489 1302.67824808 466.59847107 1304.26589717 462.54553223 1305.19978333 C461.32383898 1305.4863423 461.32383898 1305.4863423 460.07746506 1305.77869034 C459.20434299 1305.97651989 458.33122093 1306.17434944 457.43164062 1306.37817383 C456.01695433 1306.70701128 456.01695433 1306.70701128 454.57368851 1307.04249191 C451.43594117 1307.77020808 448.29613601 1308.48860389 445.15625 1309.20703125 C442.91980917 1309.72378468 440.6835044 1310.24112723 438.44732666 1310.75901794 C432.40019676 1312.15784998 426.35125783 1313.54870917 420.30198669 1314.93824768 C414.52939058 1316.26563411 408.75823313 1317.59923395 402.9870944 1318.93294024 C391.87843618 1321.50004636 380.76868263 1324.06237092 369.65820312 1326.62158203 C357.17115707 1329.49814268 344.68623449 1332.38375129 332.203125 1335.27734375 C331.31840515 1335.48240351 330.4336853 1335.68746326 329.52215576 1335.89873695 C325.95494492 1336.72555826 322.38774498 1337.55242653 318.8205719 1338.37941074 C309.47738652 1340.54535697 300.13345587 1342.70808135 290.78955078 1344.87092018 C258.62067807 1352.31729428 226.45377236 1359.77215964 194.28664494 1367.2260685 C182.58726805 1369.93709095 170.8878439 1372.64790936 159.1883837 1375.35857224 C152.15326928 1376.98854853 145.11816057 1378.61854941 138.08305287 1380.24855471 C136.34909055 1380.65030648 134.61512801 1381.05205737 132.88116527 1381.45380735 C112.47458985 1386.18191293 92.0682585 1390.91106669 71.66262817 1395.64324951 C63.62447934 1397.50733529 55.58617945 1399.37076915 47.54782295 1401.2339592 C41.48925071 1402.63832117 35.43089409 1404.04360829 29.37270832 1405.44963646 C25.77651988 1406.28403702 22.18012784 1407.11755713 18.58366966 1407.95079422 C16.95874333 1408.32745691 15.33390479 1408.70449854 13.70916176 1409.08195114 C11.55023379 1409.58346255 9.39100608 1410.08366123 7.23168945 1410.58349609 C6.04090286 1410.85970795 4.85011627 1411.1359198 3.62324524 1411.42050171 C1 1412 1 1412 0 1412 C0 1336.76 0 1261.52 0 1184 C16.5 1178.39 33 1172.78 50 1167 C63.27837139 1162.36224203 63.27837139 1162.36224203 76.55371094 1157.71582031 C93.0038238 1151.95450423 109.51981443 1146.38858505 126.03364563 1140.81343079 C142.88479215 1135.12403283 159.72001147 1129.39682653 176.5 1123.5 C194.62390356 1117.13089462 212.81406759 1110.96389548 231.01509476 1104.81976318 C250.56245907 1098.2208046 270.08135115 1091.54813967 289.54492188 1084.70507812 C291.13280543 1084.14711529 292.7206958 1083.58917185 294.30859375 1083.03125 C295.41924698 1082.64036194 295.41924698 1082.64036194 296.55233765 1082.24157715 C302.76514934 1080.06289961 309.01176303 1077.99571643 315.27368164 1075.96289062 C317.88149785 1075.26225586 317.88149785 1075.26225586 319 1074 C319.21643276 1071.96803501 319.36612066 1069.92895226 319.49075317 1067.88929749 C319.53157957 1067.24213624 319.57240597 1066.594975 319.61446953 1065.92820281 C319.75150467 1063.73762442 319.88180983 1061.54669572 320.01220703 1059.35571289 C320.10910057 1057.78471821 320.20640539 1056.21374885 320.3040905 1054.64280319 C320.57115255 1050.32881048 320.83238382 1046.01448125 321.09267426 1041.70007539 C321.37069258 1037.10833161 321.65402555 1032.51691571 321.93676758 1027.92546082 C322.42016538 1020.06389125 322.90021234 1012.20212296 323.37799072 1004.34020996 C324.05994998 993.11907768 324.74754861 981.89829659 325.43664527 970.67760062 C327.45745288 937.76841063 329.46222932 904.85824314 331.46318245 871.94784069 C331.89100321 864.91152906 332.31909697 857.87523439 332.7482605 850.83900452 C332.82795137 849.53241473 332.90764225 848.22582495 332.989748 846.87964153 C333.14539711 844.32813144 333.30108039 841.77662344 333.45680046 839.22511768 C333.89866116 831.98031686 334.33718544 824.73532408 334.77296829 817.49015522 C335.03788403 813.09480142 335.30527741 808.69960091 335.57333374 804.30443764 C335.6942556 802.3125613 335.81408656 800.32061836 335.93270874 798.32860374 C336.09175388 795.65931539 336.25462339 792.99028714 336.41845703 790.32128906 C336.46306124 789.55610993 336.50766544 788.79093081 336.55362129 788.00256443 C336.80717093 783.94467455 337.25271718 779.9969523 338 776 C336.79556244 776.17950195 335.59112488 776.35900391 334.35018921 776.54394531 C292.85936438 782.72356695 251.34990146 788.77332354 209.83752036 794.80609703 C203.54795819 795.72023012 197.25856013 796.63548443 190.96923828 797.55126953 C127.3289714 806.81659961 63.66522656 815.90496763 0 825 C0 552.75 0 280.5 0 0 Z " fill="#FEFEFE" transform="translate(1994,425)"/>
<path d="M0 0 C65.34 0 130.68 0 198 0 C198 465.96 198 931.92 198 1412 C146.05665978 1398.71216878 146.05665978 1398.71216878 124.05639648 1393.02636719 C123.20107802 1392.80537731 122.34575956 1392.58438744 121.46452236 1392.3567009 C119.66472466 1391.89165211 117.86493934 1391.4265554 116.06516647 1390.96141052 C113.2359498 1390.23021605 110.40668587 1389.49920455 107.5774231 1388.76818848 C77.56236054 1381.01187174 47.56276616 1373.19749826 17.57263184 1365.34539795 C-4.58882554 1359.54303757 -26.75494139 1353.75920398 -48.9296875 1348.0078125 C-50.07431646 1347.71089508 -51.21894543 1347.41397766 -52.39826012 1347.10806274 C-63.61693415 1344.19802772 -74.83596469 1341.28937735 -86.05601501 1338.38465309 C-91.22381272 1337.04654442 -96.39130633 1335.70726526 -101.55859375 1334.3671875 C-102.56385983 1334.10648594 -103.5691259 1333.84578438 -104.60485458 1333.57718277 C-122.44580779 1328.94746436 -140.26496677 1324.23723198 -158.07322693 1319.48336792 C-171.37929565 1315.93513922 -184.71165271 1312.50062507 -198.0625 1309.125 C-200.31352403 1308.55430502 -202.56451049 1307.98346182 -204.81542969 1307.41235352 C-205.76419983 1307.17169662 -206.71296997 1306.93103973 -207.69049072 1306.68309021 C-228.1011645 1301.49676972 -248.47357346 1296.16249448 -268.84830856 1290.83712006 C-271.78062148 1290.07083068 -274.71306357 1289.30503745 -277.64553833 1288.53936768 C-282.34062638 1287.31333062 -287.03534079 1286.08587239 -291.72977448 1284.85733223 C-293.46282094 1284.4039181 -295.1959553 1283.95083972 -296.92919159 1283.49815178 C-309.97885698 1280.08890816 -322.98638214 1276.54916851 -336 1273 C-336 1159.48 -336 1045.96 -336 929 C-322.49971519 930.12502373 -322.49971519 930.12502373 -316.19920349 931.1385498 C-315.50503029 931.24895458 -314.8108571 931.35935935 -314.09564835 931.47310972 C-311.81753579 931.83653795 -309.54050351 932.20630803 -307.26342773 932.57617188 C-305.61143485 932.84108368 -303.95937915 933.10560404 -302.30726624 933.36976624 C-297.85683103 934.08255382 -293.40731791 934.80094721 -288.95797992 935.52054787 C-284.29139727 936.27443437 -279.62404816 937.02354747 -274.95680237 937.77331543 C-267.13142468 939.03115454 -259.30662174 940.29251894 -251.48217773 941.55615234 C-242.43383345 943.01741249 -233.38469861 944.47369201 -224.33510631 945.92720175 C-215.61766194 947.32742501 -206.90068224 948.73051888 -198.18394661 950.13514709 C-194.4772048 950.73244336 -190.77032024 951.32884224 -187.06332207 951.92454529 C-182.70691316 952.62478542 -178.35092217 953.32756994 -173.99524498 954.03234673 C-172.39536691 954.29081339 -170.79534975 954.54842072 -169.19518661 954.80511665 C-167.01572102 955.15489528 -164.83677809 955.50776406 -162.65794373 955.8614502 C-160.82713587 956.1567802 -160.82713587 956.1567802 -158.959342 956.45807648 C-156 957 -156 957 -153 958 C-153 1008.82 -153 1059.64 -153 1112 C-149.37 1112.33 -145.74 1112.66 -142 1113 C-95.14 1121.91 -48.28 1130.82 0 1140 C0 763.8 0 387.6 0 0 Z " fill="#FEFEFE" transform="translate(1648,425)"/>
</svg>
