<?xml version="1.0" encoding="UTF-8"?>
<svg version="1.1" xmlns="http://www.w3.org/2000/svg" width="512" height="512">
<path d="M0 0 C5.45200907 5.06678081 10.60010275 10.44562581 15.77246094 15.79541016 C29.6497371 29.89967522 44.55601888 39.38612211 64.77832031 39.89892578 C82.82242321 39.4004699 98.19367083 31.14447275 110.71582031 18.52392578 C113.55979672 15.3067579 116.21178803 12.01141485 118.71582031 8.52392578 C119.37582031 8.85392578 120.03582031 9.18392578 120.71582031 9.52392578 C115.2998149 27.10542821 109.29799427 43.02166983 97.71582031 57.52392578 C97.27238281 58.13107422 96.82894531 58.73822266 96.37207031 59.36376953 C82.83270343 76.90715649 60.57705713 85.59369036 39.41210938 89.06591797 C7.96421185 92.96263235 -24.2015476 88.44704149 -50.18261719 69.39892578 C-52.95255612 67.1766252 -55.62856233 64.88146364 -58.28417969 62.52392578 C-59.16847656 61.74919922 -60.05277344 60.97447266 -60.96386719 60.17626953 C-65.76653762 55.87249146 -70.39130614 51.43963494 -74.91699219 46.84423828 C-75.74005859 46.01005371 -76.563125 45.17586914 -77.41113281 44.31640625 C-79.03463573 42.66402554 -80.65096114 41.00455104 -82.25878906 39.33691406 C-89.51101774 31.94239482 -97.61271839 25.4506845 -107.28417969 21.52392578 C-108.01121094 21.22486328 -108.73824219 20.92580078 -109.48730469 20.61767578 C-122.4043597 16.23075144 -138.98800113 16.66947659 -151.28417969 22.52392578 C-152.18910156 22.92482422 -153.09402344 23.32572266 -154.02636719 23.73876953 C-165.86206454 29.52250266 -174.81925536 39.6695568 -183.28417969 49.52392578 C-184.86168514 46.36891488 -183.31098703 43.5917665 -182.28417969 40.39892578 C-182.05706299 39.68897461 -181.82994629 38.97902344 -181.59594727 38.24755859 C-175.94779614 21.09713382 -168.05131052 6.52708761 -155.28417969 -6.47607422 C-154.548125 -7.23662109 -153.81207031 -7.99716797 -153.05371094 -8.78076172 C-110.7158194 -49.77121618 -39.74598503 -35.82416615 0 0 Z " fill="#17B6B9" transform="translate(237.2841796875,288.47607421875)"/>
<path d="M0 0 C2.76993894 2.22230058 5.44594514 4.51746214 8.1015625 6.875 C8.98585938 7.64972656 9.87015625 8.42445313 10.78125 9.22265625 C15.58392043 13.52643432 20.20868895 17.95929084 24.734375 22.5546875 C25.55744141 23.38887207 26.38050781 24.22305664 27.22851562 25.08251953 C28.85201854 26.73490024 30.46834395 28.39437474 32.07617188 30.06201172 C39.32840056 37.45653096 47.4301012 43.94824128 57.1015625 47.875 C57.82859375 48.1740625 58.555625 48.473125 59.3046875 48.78125 C72.22174251 53.16817434 88.80538394 52.72944919 101.1015625 46.875 C102.45894531 46.27365234 102.45894531 46.27365234 103.84375 45.66015625 C115.67944735 39.87642313 124.63663817 29.72936898 133.1015625 19.875 C134.67906795 23.0300109 133.12836985 25.80715929 132.1015625 29 C131.8744458 29.70995117 131.6473291 30.41990234 131.41333008 31.15136719 C125.76517895 48.30179196 117.86869334 62.87183817 105.1015625 75.875 C104.36550781 76.63554687 103.62945312 77.39609375 102.87109375 78.1796875 C83.11439962 97.30760912 55.77628608 102.27519199 29.22119141 102.17578125 C-8.09615989 101.51996086 -34.97325306 85.42041373 -60.53393555 59.12280273 C-76.9298894 42.12441999 -76.9298894 42.12441999 -97.8984375 31.875 C-99.05859375 31.54242188 -99.05859375 31.54242188 -100.2421875 31.203125 C-116.38533133 27.32457746 -131.94449001 30.4916371 -146.13720703 38.75927734 C-155.25028534 44.53232529 -162.62855697 52.14262863 -168.8984375 60.875 C-169.5584375 60.545 -170.2184375 60.215 -170.8984375 59.875 C-165.48243209 42.29349757 -159.48061146 26.37725596 -147.8984375 11.875 C-147.455 11.26785156 -147.0115625 10.66070312 -146.5546875 10.03515625 C-133.01532062 -7.50823071 -110.75967432 -16.19476458 -89.59472656 -19.66699219 C-58.14682904 -23.56370657 -25.98106959 -19.04811571 0 0 Z " fill="#16B9B8" transform="translate(324.8984375,155.125)"/>
</svg>
